<svg width="41" height="40" viewBox="0 0 41 40" fill="none" xmlns="http://www.w3.org/2000/svg">
<g id="crypto-asset-BTC" clip-path="url(#clip0_30_6208)">
<path id="Vector" d="M40.3817 24.8383C37.6436 35.5525 26.5206 42.0731 15.5372 39.4013C4.55829 36.73 -2.12527 25.8776 0.614006 15.164C3.35072 4.44845 14.4738 -2.07274 25.454 0.598493C36.4367 3.26971 43.1197 14.1234 40.3817 24.8383Z" fill="#0700FF"/>
<path id="Vector_2" fill-rule="evenodd" clip-rule="evenodd" d="M29.5363 17.1507C29.9443 14.4895 27.8674 13.0589 25.0275 12.1046L25.9488 8.49959L23.6995 7.95273L22.8027 11.4627C22.2114 11.3189 21.604 11.1833 21.0006 11.0489L21.9039 7.51586L19.656 6.96899L18.7342 10.5727C18.2447 10.464 17.7643 10.3565 17.2979 10.2433L17.3005 10.2321L14.1985 9.47646L13.6002 11.8202C13.6002 11.8202 15.269 12.1933 15.2338 12.2164C16.1448 12.4383 16.3094 13.0264 16.2819 13.4926C15.44 16.7874 14.6003 20.0729 13.7578 23.3682C13.6463 23.6382 13.3638 24.0432 12.727 23.8895C12.7495 23.9214 11.0922 23.4914 11.0922 23.4914L9.97559 26.0031L12.9026 26.715C13.2294 26.795 13.5524 26.8771 13.872 26.9584C14.0848 27.0125 14.2962 27.0664 14.506 27.1187L13.5752 30.765L15.8219 31.3119L16.7438 27.7044C17.3575 27.8669 17.9533 28.0169 18.5362 28.1581L17.6176 31.7487L19.8668 32.2956L20.7975 28.6562C24.6329 29.3644 27.517 29.0787 28.731 25.6944C29.7092 22.9695 28.6823 21.3976 26.6643 20.3726C28.1339 20.042 29.2409 19.0989 29.5363 17.1507ZM24.3972 24.1814C23.7595 26.6814 19.7484 25.6477 17.9131 25.1749C17.7481 25.1322 17.6005 25.0942 17.4747 25.0639L18.7097 20.2332C18.8629 20.2706 19.0503 20.3115 19.2623 20.358C21.1606 20.7735 25.0506 21.6251 24.3972 24.1814ZM19.6437 18.1162C21.1739 18.5146 24.5115 19.3836 25.0929 17.1114C25.6866 14.7872 22.4426 14.0866 20.8584 13.7445C20.6801 13.706 20.5229 13.672 20.3945 13.6407L19.2747 18.022C19.3806 18.0477 19.5047 18.08 19.6437 18.1162Z" fill="white"/>
</g>
<defs>
<clipPath id="clip0_30_6208">
<rect width="41" height="40" fill="white"/>
</clipPath>
</defs>
</svg>
