<svg width="203" height="24" viewBox="0 0 203 24" fill="none" xmlns="http://www.w3.org/2000/svg">
<path d="M36.5763 18.147C35.1298 17.4373 34.1013 16.4085 33.4909 15.0608C33.0729 14.1622 32.8672 13.1465 32.8672 12.0006C32.8672 10.9263 33.0662 9.93012 33.4776 9.01858C33.8824 8.12007 34.4796 7.35829 35.2691 6.72021C36.0587 6.08214 37.0142 5.60684 38.1422 5.28129C39.2636 4.95574 40.5242 4.79297 41.9243 4.79297C43.3243 4.79297 44.5585 4.95574 45.6798 5.27478C46.7945 5.59382 47.75 6.06912 48.533 6.68766C49.3159 7.31271 49.9131 8.05496 50.3179 8.92743C50.7624 9.90407 50.9814 10.9263 50.9814 12.0071C50.9814 13.1596 50.7491 14.2208 50.278 15.178C49.6477 16.4867 48.6192 17.4828 47.1794 18.1795C45.7395 18.8697 43.9878 19.2147 41.911 19.2147C39.8342 19.2147 38.036 18.8566 36.5896 18.147H36.5763ZM45.0694 15.803C45.932 15.3733 46.5424 14.7547 46.914 13.9474C47.1595 13.3354 47.2856 12.6843 47.2856 12.0071C47.2856 11.2779 47.1528 10.6138 46.8941 10.0278C46.5159 9.22042 45.8988 8.60839 45.0428 8.19169C44.1869 7.77499 43.1385 7.56664 41.8977 7.56664C40.657 7.56664 39.6285 7.77499 38.7725 8.19169C37.9166 8.60839 37.2995 9.22042 36.9213 10.0278C36.6625 10.6203 36.5298 11.2779 36.5298 12.0071C36.5298 12.6843 36.6625 13.3354 36.9213 13.9474C37.2995 14.7547 37.9232 15.3733 38.7858 15.803C39.6484 16.2327 40.6901 16.4476 41.9176 16.4476C43.1452 16.4476 44.2134 16.2327 45.0694 15.803Z" fill="white"/>
<path d="M54.9293 18.1274C53.4629 17.4047 52.4345 16.3629 51.8307 15.0022C51.4259 14.0906 51.2202 13.0944 51.2202 12.0006C51.2202 10.9068 51.4193 9.9171 51.8307 9.01858C52.2421 8.12007 52.8392 7.35829 53.6421 6.72021C54.445 6.08865 55.4137 5.60684 56.5417 5.28129C57.6697 4.95574 58.9171 4.79297 60.2773 4.79297C61.6376 4.79297 62.9447 4.97528 64.1258 5.33989C65.3068 5.7045 66.2955 6.23189 67.0917 6.92856C67.669 7.45595 68.1135 8.05496 68.432 8.72559C68.7505 9.39622 68.9297 10.1254 68.9695 10.9068H65.3997C65.3334 10.4835 65.2007 10.0929 64.995 9.73479C64.7893 9.37669 64.5372 9.06416 64.2187 8.7907C63.7741 8.38051 63.2167 8.07449 62.5399 7.86614C61.8698 7.6643 61.12 7.56013 60.2972 7.56013C59.0565 7.56013 57.9948 7.77499 57.1256 8.20471C56.2497 8.63444 55.6327 9.25298 55.2611 10.0603C54.9891 10.6593 54.8497 11.3104 54.8497 12.0006C54.8497 12.6908 54.9824 13.3484 55.2412 13.9213C55.6061 14.7547 56.2298 15.3798 57.1123 15.803C57.9948 16.2262 59.0498 16.4346 60.2773 16.4346C61.1266 16.4346 61.903 16.3304 62.6063 16.1155C63.3096 15.9007 63.8935 15.5947 64.3514 15.1845C64.65 14.9045 64.8955 14.5855 65.0879 14.2404C65.2803 13.8953 65.3865 13.5242 65.413 13.127H68.9828C68.943 13.9344 68.7704 14.6701 68.4519 15.3277C68.1335 15.9853 67.6955 16.5648 67.1183 17.0661C66.322 17.7693 65.3268 18.3032 64.139 18.6613C62.9513 19.0194 61.6508 19.2017 60.2375 19.2017C58.1474 19.2017 56.3692 18.8371 54.9094 18.1144L54.9293 18.1274Z" fill="white"/>
<path d="M69.9574 5.21678H81.8544V7.75606H73.348V10.7381H81.7947V13.2188H73.348V16.2594H81.8544V18.7986H69.9574V5.21678Z" fill="white"/>
<path d="M94.7063 15.8101H86.5715L85.1383 18.7921H81.4756L88.2767 5.21678H92.9612L99.7822 18.7921H96.1395L94.7063 15.8101ZM93.4721 13.2708L90.6521 7.38493H90.6123L87.7924 13.2708H93.4721Z" fill="white"/>
<path d="M100.095 5.21678H103.917L112.225 15.0614V5.21678H115.595V18.7921H111.654L103.446 9.13638V18.7921H100.095V5.21678Z" fill="white"/>
<path d="M118.13 5.21678H122.111L127.717 14.5795L133.357 5.21678H137.319V18.7921H134.107V9.31218L128.48 18.7921H126.974L121.328 9.31218V18.7921H118.136V5.21678H118.13Z" fill="white"/>
<path d="M142.043 18.147C140.596 17.4373 139.568 16.4085 138.957 15.0608C138.539 14.1622 138.334 13.1465 138.334 12.0006C138.334 10.9263 138.533 9.93012 138.944 9.01858C139.349 8.12007 139.946 7.35829 140.736 6.72021C141.525 6.08214 142.481 5.60684 143.609 5.28129C144.73 4.95574 145.991 4.79297 147.391 4.79297C148.791 4.79297 150.025 4.95574 151.146 5.27478C152.261 5.59382 153.216 6.06912 153.999 6.68766C154.782 7.31271 155.38 8.05496 155.784 8.92743C156.229 9.90407 156.448 10.9263 156.448 12.0071C156.448 13.1596 156.216 14.2208 155.744 15.178C155.114 16.4867 154.086 17.4828 152.646 18.1795C151.206 18.8697 149.454 19.2147 147.377 19.2147C145.301 19.2147 143.502 18.8566 142.056 18.147H142.043ZM150.536 15.803C151.398 15.3733 152.009 14.7547 152.38 13.9474C152.626 13.3354 152.752 12.6843 152.752 12.0071C152.752 11.2779 152.619 10.6138 152.36 10.0278C151.982 9.22042 151.365 8.60839 150.509 8.19169C149.653 7.77499 148.605 7.56664 147.364 7.56664C146.123 7.56664 145.095 7.77499 144.239 8.19169C143.383 8.60839 142.766 9.22042 142.388 10.0278C142.129 10.6203 141.996 11.2779 141.996 12.0071C141.996 12.6843 142.129 13.3354 142.388 13.9474C142.766 14.7547 143.39 15.3733 144.252 15.803C145.115 16.2327 146.157 16.4476 147.384 16.4476C148.612 16.4476 149.68 16.2327 150.536 15.803Z" fill="white"/>
<path d="M157.415 5.21678H161.237L169.544 15.0614V5.21678H172.915V18.7921H168.974L160.766 9.13638V18.7921H157.415V5.21678Z" fill="white"/>
<path d="M174.681 5.21678H186.578V7.75606H178.072V10.7381H186.519V13.2188H178.072V16.2594H186.578V18.7986H174.681V5.21678Z" fill="white"/>
<path d="M192.649 12.8281L186.279 5.21678H190.294L194.308 10.0414L198.362 5.21678H202.376L196.006 12.8281V18.7921H192.636V12.8281H192.649Z" fill="white"/>
<path d="M11.7178 11.4984C5.25511 11.4984 0 6.34168 0 0H4.70438C4.70438 3.79589 7.84948 6.88209 11.7178 6.88209V11.4984Z" fill="white"/>
<path d="M25.513 11.4984C19.0503 11.4984 13.7951 6.34168 13.7951 0H18.4995C18.4995 3.79589 21.6446 6.88209 25.513 6.88209V11.4984Z" fill="white"/>
<path d="M11.7178 24C5.25511 24 0 18.8433 0 12.5016H4.70438C4.70438 16.2975 7.84948 19.3837 11.7178 19.3837V24Z" fill="white"/>
<path d="M25.513 24C19.0503 24 13.7951 18.8433 13.7951 12.5016H18.4995C18.4995 16.2975 21.6446 19.3837 25.513 19.3837V24Z" fill="white"/>
</svg>
