<svg width="293" height="218" viewBox="0 0 293 218" fill="none" xmlns="http://www.w3.org/2000/svg">
<mask id="path-1-inside-1_1956_217242" fill="white">
<path fill-rule="evenodd" clip-rule="evenodd" d="M195.078 217.766C184.874 217.766 176.602 209.494 176.602 199.29C176.602 165.616 149.305 138.318 115.631 138.318C105.427 138.318 97.1553 130.046 97.1553 119.842C97.1553 109.638 105.427 101.366 115.631 101.366C149.304 101.366 176.602 74.0692 176.602 40.3966C176.602 30.1926 184.874 21.9207 195.078 21.9207C205.282 21.9207 213.554 30.1927 213.554 40.3966C213.554 74.0692 240.852 101.366 274.524 101.366C284.728 101.366 293 109.638 293 119.842C293 130.046 284.728 138.318 274.524 138.318C240.851 138.318 213.554 165.617 213.554 199.29C213.554 209.494 205.282 217.766 195.078 217.766Z"/>
</mask>
<path d="M177.561 199.29C177.561 208.964 185.404 216.807 195.078 216.807V218.725C184.345 218.725 175.643 210.023 175.643 199.29H177.561ZM98.1143 119.842C98.1143 129.516 105.957 137.359 115.631 137.359V139.277C104.898 139.277 96.1963 130.576 96.1963 119.842H98.1143ZM115.631 102.325C105.957 102.325 98.1143 110.168 98.1143 119.842H96.1963C96.1963 109.108 104.898 100.407 115.631 100.407V102.325ZM195.078 22.8797C185.404 22.8797 177.561 30.7223 177.561 40.3966H175.643C175.643 29.663 184.345 20.9617 195.078 20.9617V22.8797ZM212.595 40.3966C212.595 30.7223 204.752 22.8797 195.078 22.8797V20.9617C205.812 20.9617 214.513 29.663 214.513 40.3966H212.595ZM292.041 119.842C292.041 110.168 284.199 102.325 274.524 102.325V100.407C285.258 100.407 293.959 109.108 293.959 119.842H292.041ZM274.524 137.359C284.199 137.359 292.041 129.516 292.041 119.842H293.959C293.959 130.576 285.258 139.277 274.524 139.277V137.359ZM195.078 216.807C204.752 216.807 212.595 208.964 212.595 199.29H214.513C214.513 210.023 205.812 218.725 195.078 218.725V216.807ZM274.524 139.277C241.381 139.277 214.513 166.146 214.513 199.29H212.595C212.595 165.087 240.322 137.359 274.524 137.359V139.277ZM214.513 40.3966C214.513 73.5395 241.381 100.407 274.524 100.407V102.325C240.322 102.325 212.595 74.5988 212.595 40.3966H214.513ZM115.631 100.407C148.774 100.407 175.643 73.5395 175.643 40.3966H177.561C177.561 74.5989 149.833 102.325 115.631 102.325V100.407ZM175.643 199.29C175.643 166.146 148.775 139.277 115.631 139.277V137.359C149.834 137.359 177.561 165.087 177.561 199.29H175.643Z" fill="url(#paint0_linear_1956_217242)" fill-opacity="0.4" mask="url(#path-1-inside-1_1956_217242)"/>
<mask id="path-3-inside-2_1956_217242" fill="white">
<path fill-rule="evenodd" clip-rule="evenodd" d="M98.1602 217.766C87.9562 217.766 79.6843 209.494 79.6843 199.29C79.6843 165.616 52.3866 138.318 18.7133 138.318C8.50927 138.318 0.237305 130.046 0.237305 119.842C0.237305 109.638 8.50929 101.366 18.7133 101.366C52.3858 101.366 79.6843 74.0692 79.6843 40.3966C79.6843 30.1926 87.9562 21.9207 98.1602 21.9207C108.364 21.9207 116.636 30.1927 116.636 40.3966C116.636 74.0692 143.934 101.366 177.606 101.366C187.81 101.366 196.082 109.638 196.082 119.842C196.082 130.046 187.81 138.318 177.606 138.318C143.933 138.318 116.636 165.617 116.636 199.29C116.636 209.494 108.364 217.766 98.1602 217.766Z"/>
</mask>
<path d="M80.6433 199.29C80.6433 208.964 88.4859 216.807 98.1602 216.807V218.725C87.4266 218.725 78.7252 210.023 78.7252 199.29H80.6433ZM1.19632 119.842C1.19632 129.516 9.03892 137.359 18.7133 137.359V139.277C7.97962 139.277 -0.721712 130.576 -0.721712 119.842H1.19632ZM18.7133 102.325C9.03894 102.325 1.19632 110.168 1.19632 119.842H-0.721712C-0.721712 109.108 7.97964 100.407 18.7133 100.407V102.325ZM98.1602 22.8797C88.4859 22.8797 80.6433 30.7223 80.6433 40.3966H78.7252C78.7252 29.663 87.4266 20.9617 98.1602 20.9617V22.8797ZM115.677 40.3966C115.677 30.7223 107.835 22.8797 98.1602 22.8797V20.9617C108.894 20.9617 117.595 29.663 117.595 40.3966H115.677ZM195.123 119.842C195.123 110.168 187.281 102.325 177.606 102.325V100.407C188.34 100.407 197.041 109.108 197.041 119.842H195.123ZM177.606 137.359C187.281 137.359 195.123 129.516 195.123 119.842H197.041C197.041 130.576 188.34 139.277 177.606 139.277V137.359ZM98.1602 216.807C107.835 216.807 115.677 208.964 115.677 199.29H117.595C117.595 210.023 108.894 218.725 98.1602 218.725V216.807ZM177.606 139.277C144.463 139.277 117.595 166.146 117.595 199.29H115.677C115.677 165.087 143.404 137.359 177.606 137.359V139.277ZM117.595 40.3966C117.595 73.5395 144.463 100.407 177.606 100.407V102.325C143.404 102.325 115.677 74.5988 115.677 40.3966H117.595ZM18.7133 100.407C51.8562 100.407 78.7252 73.5395 78.7252 40.3966H80.6433C80.6433 74.5989 52.9155 102.325 18.7133 102.325V100.407ZM78.7252 199.29C78.7252 166.146 51.8569 139.277 18.7133 139.277V137.359C52.9163 137.359 80.6433 165.087 80.6433 199.29H78.7252Z" fill="url(#paint1_linear_1956_217242)" fill-opacity="0.4" mask="url(#path-3-inside-2_1956_217242)"/>
<mask id="path-5-inside-3_1956_217242" fill="white">
<path fill-rule="evenodd" clip-rule="evenodd" d="M146.67 195.846C136.466 195.846 128.194 187.574 128.194 177.37C128.194 143.696 100.896 116.398 67.223 116.398C57.019 116.398 48.7471 108.126 48.7471 97.9222C48.7471 87.7182 57.0191 79.4463 67.223 79.4463C100.896 79.4463 128.194 52.1493 128.194 18.4767C128.194 8.27271 136.466 0.000747681 146.67 0.000747681C156.874 0.000747681 165.146 8.27274 165.146 18.4767C165.146 52.1492 192.444 79.4463 226.116 79.4463C236.32 79.4463 244.592 87.7182 244.592 97.9222C244.592 108.126 236.32 116.398 226.116 116.398C192.443 116.398 165.146 143.697 165.146 177.37C165.146 187.574 156.874 195.846 146.67 195.846Z"/>
</mask>
<path fill-rule="evenodd" clip-rule="evenodd" d="M146.67 195.846C136.466 195.846 128.194 187.574 128.194 177.37C128.194 143.696 100.896 116.398 67.223 116.398C57.019 116.398 48.7471 108.126 48.7471 97.9222C48.7471 87.7182 57.0191 79.4463 67.223 79.4463C100.896 79.4463 128.194 52.1493 128.194 18.4767C128.194 8.27271 136.466 0.000747681 146.67 0.000747681C156.874 0.000747681 165.146 8.27274 165.146 18.4767C165.146 52.1492 192.444 79.4463 226.116 79.4463C236.32 79.4463 244.592 87.7182 244.592 97.9222C244.592 108.126 236.32 116.398 226.116 116.398C192.443 116.398 165.146 143.697 165.146 177.37C165.146 187.574 156.874 195.846 146.67 195.846Z" fill="url(#paint2_linear_1956_217242)" fill-opacity="0.2"/>
<path d="M129.153 177.37C129.153 187.044 136.996 194.887 146.67 194.887V196.805C135.936 196.805 127.235 188.103 127.235 177.37H129.153ZM49.7061 97.9222C49.7061 107.597 57.5487 115.439 67.223 115.439V117.357C56.4894 117.357 47.7881 108.656 47.7881 97.9222H49.7061ZM67.223 80.4053C57.5487 80.4053 49.7061 88.2479 49.7061 97.9222H47.7881C47.7881 87.1886 56.4894 78.4873 67.223 78.4873V80.4053ZM146.67 0.959763C136.996 0.959763 129.153 8.80235 129.153 18.4767H127.235C127.235 7.74306 135.936 -0.958267 146.67 -0.958267V0.959763ZM164.187 18.4767C164.187 8.80238 156.344 0.959763 146.67 0.959763V-0.958267C157.404 -0.958267 166.105 7.74309 166.105 18.4767H164.187ZM243.633 97.9222C243.633 88.2479 235.79 80.4053 226.116 80.4053V78.4872C236.85 78.4872 245.551 87.1886 245.551 97.9222H243.633ZM226.116 115.439C235.79 115.439 243.633 107.597 243.633 97.9222H245.551C245.551 108.656 236.85 117.357 226.116 117.357V115.439ZM146.67 194.887C156.344 194.887 164.187 187.044 164.187 177.37H166.105C166.105 188.103 157.404 196.805 146.67 196.805V194.887ZM226.116 117.357C192.973 117.357 166.105 144.227 166.105 177.37H164.187C164.187 143.167 191.913 115.439 226.116 115.439V117.357ZM166.105 18.4767C166.105 51.6196 192.973 78.4872 226.116 78.4872V80.4053C191.914 80.4053 164.187 52.6789 164.187 18.4767H166.105ZM67.223 78.4873C100.366 78.4873 127.235 51.6196 127.235 18.4767H129.153C129.153 52.679 101.425 80.4053 67.223 80.4053V78.4873ZM127.235 177.37C127.235 144.226 100.367 117.357 67.223 117.357V115.439C101.426 115.439 129.153 143.167 129.153 177.37H127.235Z" fill="url(#paint3_linear_1956_217242)" fill-opacity="0.4" mask="url(#path-5-inside-3_1956_217242)"/>
<defs>
<linearGradient id="paint0_linear_1956_217242" x1="341.961" y1="-19.3467" x2="195.503" y2="140.264" gradientUnits="userSpaceOnUse">
<stop stop-color="#061935"/>
<stop offset="1" stop-color="#061935" stop-opacity="0"/>
</linearGradient>
<linearGradient id="paint1_linear_1956_217242" x1="245.043" y1="-19.3467" x2="98.5846" y2="140.264" gradientUnits="userSpaceOnUse">
<stop stop-color="#061935"/>
<stop offset="1" stop-color="#061935" stop-opacity="0"/>
</linearGradient>
<linearGradient id="paint2_linear_1956_217242" x1="75.6758" y1="598.797" x2="336.639" y2="63.1608" gradientUnits="userSpaceOnUse">
<stop stop-color="white"/>
<stop offset="1" stop-color="white" stop-opacity="0"/>
</linearGradient>
<linearGradient id="paint3_linear_1956_217242" x1="293.553" y1="-41.2666" x2="147.094" y2="118.344" gradientUnits="userSpaceOnUse">
<stop stop-color="#061935"/>
<stop offset="1" stop-color="#061935" stop-opacity="0"/>
</linearGradient>
</defs>
</svg>
