<svg width="16" height="16" viewBox="0 0 16 16" fill="none" xmlns="http://www.w3.org/2000/svg">
<g id="polygon (1) 1">
<rect width="16" height="16" rx="8" fill="url(#paint0_linear_2829_44133)"/>
<path id="Vector" d="M10.2627 9.63406L12.4764 8.39713C12.5935 8.33164 12.6663 8.20968 12.6663 8.07869V5.60443C12.6663 5.47363 12.5935 5.35148 12.4764 5.28599L10.2627 4.04905C10.1456 3.98355 9.9999 3.98375 9.88281 4.04905L7.66905 5.28599C7.55196 5.35148 7.47914 5.47344 7.47914 5.60443V10.0257L5.92681 10.8929L4.3745 10.0257V8.29074L5.92681 7.42355L6.95083 7.99552V6.83176L6.11674 6.3658C6.05919 6.33373 5.99351 6.31682 5.92681 6.31682C5.86013 6.31682 5.79445 6.33373 5.73689 6.3658L3.52293 7.60292C3.40584 7.66844 3.33301 7.7904 3.33301 7.92138V10.3954C3.33301 10.5262 3.40584 10.6484 3.52293 10.7139L5.7367 11.951C5.85379 12.0163 5.99924 12.0163 6.11655 11.951L8.33032 10.7141C8.44741 10.6486 8.52023 10.5264 8.52023 10.3956V5.97438L8.5482 5.9588L10.0725 5.10718L11.6249 5.97456V7.70933L10.0725 8.57672L9.0501 8.00552V9.16925L9.88262 9.63465C9.99971 9.69995 10.1454 9.69995 10.2625 9.63465L10.2627 9.63406Z" fill="white"/>
</g>
<defs>
<linearGradient id="paint0_linear_2829_44133" x1="1.36015" y1="13.4666" x2="16.2241" y2="3.86779" gradientUnits="userSpaceOnUse">
<stop stop-color="#A726C1"/>
<stop offset="0.88" stop-color="#803BDF"/>
<stop offset="1" stop-color="#7B3FE4"/>
</linearGradient>
</defs>
</svg>
