<svg width="29" height="18" viewBox="0 0 29 18" fill="none" xmlns="http://www.w3.org/2000/svg">
<g id="Group">
<path id="rect19" d="M18.2775 2.19238H10.7002V15.8057H18.2775V2.19238Z" fill="#FF5A00"/>
<path id="XMLID_330_" d="M11.2046 8.99975C11.2046 6.23393 12.5048 3.77917 14.5 2.1931C13.0316 1.03858 11.1793 0.34082 9.15893 0.34082C4.3727 0.34082 0.5 4.21352 0.5 8.99975C0.5 13.786 4.3727 17.6587 9.15893 17.6587C11.1793 17.6587 13.0316 16.9609 14.5 15.8064C12.502 14.2427 11.2046 11.7656 11.2046 8.99975Z" fill="#EB001B"/>
<path id="path22" d="M28.5 8.99975C28.5 13.786 24.6273 17.6587 19.8411 17.6587C17.8207 17.6587 15.9684 16.9609 14.5 15.8064C16.5204 14.2175 17.7954 11.7656 17.7954 8.99975C17.7954 6.23393 16.4952 3.77917 14.5 2.1931C15.9656 1.03858 17.8179 0.34082 19.8383 0.34082C24.6273 0.34082 28.5 4.23874 28.5 8.99975Z" fill="#F79E1B"/>
</g>
</svg>
