<svg width="16" height="16" viewBox="0 0 16 16" fill="none" xmlns="http://www.w3.org/2000/svg">
<g id="flower 1">
<path id="Vector" d="M4.86668 11.4667C4.53334 11.2667 4.20001 11.0667 3.93334 10.7333C3.06668 9.86668 2.60001 8.60001 2.66668 7.33335C2.93334 7.33335 3.26668 7.33335 3.53334 7.33335C3.86668 7.40001 4.20001 7.13335 4.26668 6.73335C4.33334 6.40001 4.06668 6.06668 3.66668 6.00001C3.13334 6.00001 2.53334 6.00001 2.00001 6.06668C1.66668 6.13335 1.46668 6.33335 1.40001 6.60001C1.06668 8.46668 1.66668 10.3333 2.93334 11.6667C3.33334 12.0667 3.73334 12.3333 4.20001 12.6C4.53334 12.8 4.93334 12.6667 5.13334 12.3333C5.33334 12 5.20001 11.6 4.86668 11.4667ZM14.6 6.60001C14.5333 6.33335 14.3333 6.13335 14.0667 6.06668C13.4667 6.00001 12.8667 6.00001 12.2667 6.06668C11.9333 6.13335 11.6667 6.46668 11.6667 6.80001C11.7333 7.13335 12.0667 7.40001 12.4 7.40001C12.6667 7.33335 13 7.33335 13.2667 7.40001C13.3333 8.66668 12.9333 9.86668 12 10.8C11.7333 11.0667 11.4 11.3333 11.0667 11.5333C10.7333 11.7333 10.6 12.1333 10.8 12.4667C11 12.8 11.4 12.9333 11.7333 12.7333C12.2 12.4667 12.6 12.2 13 11.8C14.3333 10.3333 14.9333 8.46668 14.6 6.60001ZM10.0667 4.46668C9.60001 3.80001 9.06668 3.26668 8.40001 2.80001C8.20001 2.66668 7.86667 2.66668 7.66668 2.80001C4.73334 4.73335 4.00001 8.66668 5.93334 11.5333C6.40001 12.2 6.93334 12.7333 7.60001 13.2C7.80001 13.3333 8.13334 13.3333 8.33334 13.2C11.2667 11.2667 12 7.33335 10.0667 4.46668Z" fill="white"/>
</g>
</svg>
