<svg width="16" height="16" viewBox="0 0 16 16" fill="none" xmlns="http://www.w3.org/2000/svg">
<g id="wrapper">
<path id="Vector" d="M15.1345 11.6669L9.73448 2.33357C9.20115 1.40024 7.93448 1.0669 7.00115 1.60024C6.66781 1.80024 6.40115 2.0669 6.26781 2.33357L0.867814 11.6669C0.33448 12.6002 0.667814 13.8669 1.60115 14.4002C1.93448 14.6002 2.26781 14.6669 2.60115 14.6669H13.3345C14.4678 14.6669 15.3345 13.7336 15.3345 12.6669C15.4011 12.2669 15.2678 11.9336 15.1345 11.6669ZM8.00115 12.0002C7.60115 12.0002 7.33448 11.7336 7.33448 11.3336C7.33448 10.9336 7.60115 10.6669 8.00115 10.6669C8.40115 10.6669 8.66781 10.9336 8.66781 11.3336C8.66781 11.7336 8.40115 12.0002 8.00115 12.0002ZM8.66781 8.6669C8.66781 9.0669 8.40115 9.33357 8.00115 9.33357C7.60115 9.33357 7.33448 9.0669 7.33448 8.6669V6.00024C7.33448 5.60024 7.60115 5.33357 8.00115 5.33357C8.40115 5.33357 8.66781 5.60024 8.66781 6.00024V8.6669Z" fill="#F09000"/>
</g>
</svg>
