<svg width="40" height="40" viewBox="0 0 40 40" fill="none" xmlns="http://www.w3.org/2000/svg">
<g id="wrapper" clip-path="url(#clip0_4141_19001)">
<path id="Vector" fill-rule="evenodd" clip-rule="evenodd" d="M20 40C31.0457 40 40 31.0457 40 20C40 8.9543 31.0457 0 20 0C8.9543 0 0 8.9543 0 20C0 31.0457 8.9543 40 20 40Z" fill="#2853B9"/>
<g id="Union">
<path d="M19.9091 5.96955C20.4316 5.99705 20.8808 5.59371 20.9174 5.07121C20.9541 4.54871 20.5416 4.09955 20.0191 4.06288C19.4966 4.03538 19.0474 4.42955 19.0108 4.95205C18.9833 5.48371 19.3866 5.93288 19.9091 5.96955Z" fill="white"/>
<path d="M28.8099 6.0979C28.5808 6.44623 28.1224 6.54706 27.7741 6.3179C27.4349 6.08873 27.3341 5.62123 27.5541 5.2729C27.7833 4.93373 28.2416 4.8329 28.5899 5.06206C28.9383 5.29123 29.0391 5.74956 28.8099 6.0979Z" fill="white"/>
<path d="M12.09 6.39118C12.4566 6.20785 12.6033 5.74952 12.42 5.38285C12.2366 5.01618 11.7783 4.86952 11.4116 5.05285C11.045 5.23618 10.8983 5.68535 11.0816 6.05202C11.265 6.42785 11.7141 6.58368 12.09 6.39118Z" fill="white"/>
<path d="M14.4183 22.2678C13.1441 22.1945 12.1633 21.1037 12.2366 19.8295C12.3008 18.6012 13.3183 17.6387 14.5466 17.6387C15.8299 17.6295 16.8658 18.6653 16.8658 19.9487C16.8749 21.232 15.8391 22.2678 14.5558 22.2678H14.4183Z" fill="white"/>
<path d="M2.81327 19.9395C2.8316 19.527 3.1891 19.2062 3.6016 19.2337C4.0141 19.2612 4.33494 19.6095 4.30744 20.022C4.27994 20.4345 3.9316 20.7554 3.5191 20.7279C3.1066 20.7095 2.79494 20.352 2.81327 19.9395Z" fill="white"/>
<path d="M14.9499 8.93956C15.2341 9.5079 15.0049 10.2046 14.4366 10.4887C13.8683 10.7729 13.1716 10.5437 12.8874 9.9754C12.6033 9.40706 12.8324 8.7104 13.4008 8.42623C13.9691 8.14206 14.6658 8.37123 14.9499 8.93956Z" fill="white"/>
<path d="M6.53493 13.3029C6.97493 13.587 7.5616 13.4679 7.85493 13.0279C8.1391 12.5879 8.01993 12.0012 7.57993 11.7079C7.13993 11.4237 6.55327 11.5429 6.25993 11.9829C5.9666 12.4229 6.09493 13.0187 6.53493 13.3029Z" fill="white"/>
<path d="M6.71827 19.912C6.75494 19.2704 7.29577 18.7845 7.93744 18.8212C8.57911 18.8579 9.06494 19.4079 9.02827 20.0404C8.99161 20.682 8.45077 21.1679 7.80911 21.1312C7.16744 21.0945 6.68161 20.5537 6.71827 19.912Z" fill="white"/>
<path d="M6.66327 26.5854C6.19577 26.8237 6.00327 27.3921 6.2416 27.8687C6.47993 28.3362 7.04827 28.5287 7.52493 28.2904C7.99243 28.0521 8.18493 27.4837 7.9466 27.0071C7.70827 26.5396 7.13077 26.3471 6.66327 26.5854Z" fill="white"/>
<path d="M13.0341 16.0345C12.6308 16.667 11.7874 16.8412 11.1549 16.4287C10.5224 16.0162 10.3483 15.1729 10.7608 14.5495C11.1641 13.917 12.0074 13.7429 12.6399 14.1554C13.2724 14.5587 13.4466 15.402 13.0341 16.0345Z" fill="white"/>
<path d="M25.4091 10.397C25.9408 10.7454 26.6649 10.5987 27.0133 10.067C27.3616 9.53538 27.2149 8.81121 26.6833 8.46288C26.1516 8.11455 25.4274 8.26121 25.0791 8.79288C24.7216 9.33371 24.8683 10.0487 25.4091 10.397Z" fill="white"/>
<path d="M25.5833 17.6203C24.3091 17.547 23.2091 18.5278 23.1449 19.802C23.0716 21.0762 24.0524 22.1762 25.3266 22.2403H25.4549C26.7291 22.2403 27.7649 21.2045 27.7649 19.9212C27.7741 18.702 26.8116 17.6845 25.5833 17.6203Z" fill="white"/>
<path d="M17.2691 17.5378C16.3891 17.5378 15.5916 17.0428 15.1974 16.2637C14.6199 15.127 15.0783 13.7337 16.2241 13.147C17.3608 12.5695 18.7541 13.0278 19.3316 14.1737C19.4966 14.5037 19.5791 14.8612 19.5791 15.2187C19.5791 16.502 18.5433 17.5378 17.2691 17.5378Z" fill="white"/>
<path d="M33.3383 13.3028C33.8058 13.0645 33.9891 12.487 33.7508 12.0195C33.5124 11.552 32.9349 11.3687 32.4674 11.607C31.9999 11.8453 31.8166 12.4137 32.0458 12.8812C32.2933 13.3487 32.8616 13.5412 33.3383 13.3028Z" fill="white"/>
<path d="M26.8666 15.8604C26.5274 15.1912 26.8024 14.3754 27.4716 14.0362C28.1408 13.7062 28.9566 13.972 29.2958 14.6412C29.6349 15.3104 29.3599 16.1262 28.6908 16.4654C28.0216 16.8045 27.2058 16.5295 26.8666 15.8604Z" fill="white"/>
<path d="M21.3299 10.672C21.2933 11.4237 20.6516 12.0012 19.8999 11.9553C19.1483 11.9187 18.5799 11.277 18.6166 10.5253C18.6533 9.77366 19.2949 9.19616 20.0466 9.24199C20.7983 9.27866 21.3758 9.92032 21.3299 10.672Z" fill="white"/>
<path d="M12.5299 25.852C13.1991 25.5128 13.4741 24.697 13.1349 24.0278C12.7958 23.3587 11.9799 23.0837 11.3108 23.4228C10.6416 23.762 10.3666 24.5778 10.7058 25.247C11.0449 25.9162 11.8608 26.1912 12.5299 25.852Z" fill="white"/>
<path d="M21.4491 17.1437C20.3766 16.447 20.0833 15.017 20.7799 13.9445C21.2108 13.2937 21.9349 12.8995 22.7141 12.8995C23.1633 12.8995 23.6033 13.0279 23.9791 13.2754C25.0516 13.972 25.3449 15.402 24.6483 16.4745C23.9516 17.547 22.5216 17.8404 21.4491 17.1437Z" fill="white"/>
<path d="M24.8041 23.6245C24.2266 22.4787 22.8333 22.0204 21.6966 22.5979C20.5508 23.1754 20.0924 24.5687 20.6699 25.7054C21.2474 26.8512 22.6408 27.3095 23.7774 26.732C24.9141 26.1637 25.3816 24.7887 24.8133 23.6429C24.8133 23.6337 24.8133 23.6337 24.8041 23.6245Z" fill="white"/>
<path d="M26.9674 23.8537C27.3708 23.2212 28.2141 23.047 28.8466 23.4595C29.4791 23.872 29.6533 24.7154 29.2408 25.3387C28.8374 25.9712 27.9941 26.1453 27.3616 25.7328C26.7291 25.3295 26.5549 24.4862 26.9674 23.8537Z" fill="white"/>
<path d="M33.2833 19.9854C33.3199 19.3437 32.8341 18.8029 32.1924 18.7662C31.5508 18.7295 31.0099 19.2154 30.9733 19.857C30.9366 20.4987 31.4224 21.0395 32.0641 21.0762C32.6966 21.1129 33.2466 20.6179 33.2833 19.9854Z" fill="white"/>
<path d="M35.6941 19.8662C35.7124 19.4537 36.0699 19.1329 36.4824 19.1604C36.8949 19.1879 37.2066 19.5362 37.1883 19.9487C37.1608 20.3612 36.8124 20.682 36.3999 20.6545C35.9874 20.6362 35.6758 20.2787 35.6941 19.8662Z" fill="white"/>
<path d="M33.4666 26.5853C33.0266 26.3012 32.4399 26.4203 32.1466 26.8603C31.8624 27.3003 31.9816 27.887 32.4216 28.1803C32.8616 28.4645 33.4483 28.3453 33.7416 27.9053C34.0349 27.4653 33.9066 26.8695 33.4666 26.5853Z" fill="white"/>
<path d="M11.1824 33.7812C11.4116 33.442 11.8699 33.3412 12.2183 33.5703C12.5666 33.7995 12.6674 34.267 12.4291 34.6062C12.1999 34.9453 11.7416 35.0462 11.3933 34.817C11.0541 34.5878 10.9533 34.1295 11.1824 33.7812Z" fill="white"/>
<path d="M27.9116 33.497C27.5449 33.6804 27.3983 34.1387 27.5816 34.5054C27.7649 34.872 28.2233 35.0187 28.5899 34.8354C28.9566 34.652 29.1033 34.2029 28.9199 33.8362C28.7366 33.4604 28.2874 33.3045 27.9116 33.497Z" fill="white"/>
<path d="M18.5524 22.7354C19.6249 23.4412 19.9183 24.8712 19.2216 25.9437C18.7908 26.6037 18.0666 26.9979 17.2783 26.9887C16.8291 26.9887 16.3891 26.8604 16.0133 26.6129C14.9408 25.9071 14.6383 24.4771 15.3441 23.4046C16.0499 22.3321 17.4799 22.0387 18.5524 22.7354Z" fill="white"/>
<path d="M14.5924 29.4912C14.0608 29.1428 13.3366 29.2895 12.9883 29.8212C12.6399 30.3528 12.7866 31.077 13.3183 31.4253C13.8499 31.7737 14.5741 31.627 14.9224 31.0953C15.2799 30.5637 15.1333 29.8395 14.5924 29.4912Z" fill="white"/>
<path d="M18.9833 34.8171C19.0199 34.2946 19.4691 33.8912 19.9916 33.9187C20.5141 33.9554 20.9174 34.4046 20.8899 34.9362C20.8533 35.4587 20.4041 35.8529 19.8816 35.8254C19.3591 35.7887 18.9466 35.3396 18.9833 34.8171Z" fill="white"/>
<path d="M20.0008 27.9329C19.2491 27.887 18.6074 28.4645 18.5708 29.2162C18.5249 29.9679 19.1024 30.6095 19.8541 30.6462C20.6058 30.6829 21.2474 30.1145 21.2841 29.3629C21.3299 28.6204 20.7524 27.9695 20.0008 27.9329Z" fill="white"/>
<path d="M25.0608 30.9579C24.7674 30.3896 24.9966 29.6929 25.5649 29.3996C26.1424 29.1062 26.8391 29.3446 27.1324 29.9129C27.4166 30.4812 27.1874 31.1779 26.6191 31.4621C26.0508 31.7554 25.3541 31.5262 25.0608 30.9579Z" fill="white"/>
</g>
</g>
<defs>
<clipPath id="clip0_4141_19001">
<rect width="40" height="40" fill="white"/>
</clipPath>
</defs>
</svg>
