<svg width="24" height="24" viewBox="0 0 24 24" fill="none" xmlns="http://www.w3.org/2000/svg">
<g id="icrypto-asset-USDT" clip-path="url(#clip0_2568_212691)">
<path id="Vector" d="M12 0C18.6271 0 24 5.37284 24 12C24 18.6271 18.6269 24 12 24C5.37312 24 0 18.6285 0 12C0 5.37148 5.37216 0 12 0Z" fill="#009393"/>
<path id="Vector_2" d="M13.4817 10.3996V8.61453H17.5639V5.89453H6.44798V8.61453H10.5305V10.3982C7.21262 10.5507 4.71777 11.2077 4.71777 11.9949C4.71777 12.7821 7.21377 13.4391 10.5305 13.5925V19.3104H13.4825V13.5921C16.7945 13.4393 19.2843 12.7827 19.2843 11.9961C19.2843 11.2095 16.7945 10.5531 13.4825 10.4001L13.4817 10.3996ZM13.4827 13.1078V13.1064C13.3994 13.1116 12.9715 13.1373 12.0187 13.1373C11.2569 13.1373 10.721 13.1157 10.5321 13.1058V13.1082C7.60074 12.9785 5.41262 12.468 5.41262 11.8571C5.41262 11.2464 7.60097 10.7366 10.5321 10.6065V12.5997C10.7241 12.6129 11.2732 12.6453 12.0311 12.6453C12.9415 12.6453 13.3991 12.6073 13.4831 12.5997V10.6065C16.4087 10.7367 18.5918 11.2478 18.5918 11.8564C18.5918 12.465 16.4073 12.9761 13.4827 13.1064" fill="white"/>
</g>
<defs>
<clipPath id="clip0_2568_212691">
<rect width="24" height="24" fill="white"/>
</clipPath>
</defs>
</svg>
