<svg width="16" height="16" viewBox="0 0 16 16" fill="none" xmlns="http://www.w3.org/2000/svg">
<g id="growth">
<path id="Vector" d="M14.612 4.41333C14.5443 4.25043 14.4149 4.12098 14.252 4.05333C14.1718 4.01917 14.0858 4.00105 13.9987 4H10.6653C10.4885 4 10.3189 4.07024 10.1939 4.19526C10.0689 4.32029 9.99866 4.48986 9.99866 4.66667C9.99866 4.84348 10.0689 5.01305 10.1939 5.13807C10.3189 5.2631 10.4885 5.33333 10.6653 5.33333H12.392L8.66532 9.06L6.47199 6.86C6.41002 6.79751 6.33628 6.74792 6.25504 6.71407C6.1738 6.68023 6.08667 6.6628 5.99866 6.6628C5.91065 6.6628 5.82351 6.68023 5.74227 6.71407C5.66103 6.74792 5.5873 6.79751 5.52532 6.86L1.52532 10.86C1.46284 10.922 1.41324 10.9957 1.3794 11.0769C1.34555 11.1582 1.32812 11.2453 1.32812 11.3333C1.32813 11.4213 1.34555 11.5085 1.3794 11.5897C1.41324 11.671 1.46284 11.7447 1.52532 11.8067C1.5873 11.8692 1.66103 11.9187 1.74227 11.9526C1.82351 11.9864 1.91065 12.0039 1.99866 12.0039C2.08667 12.0039 2.1738 11.9864 2.25504 11.9526C2.33628 11.9187 2.41002 11.8692 2.47199 11.8067L5.99866 8.27333L8.19199 10.4733C8.25397 10.5358 8.3277 10.5854 8.40894 10.6193C8.49018 10.6531 8.57732 10.6705 8.66532 10.6705C8.75333 10.6705 8.84047 10.6531 8.92171 10.6193C9.00295 10.5854 9.07668 10.5358 9.13866 10.4733L13.332 6.27333V8C13.332 8.17681 13.4022 8.34638 13.5273 8.4714C13.6523 8.59643 13.8218 8.66667 13.9987 8.66667C14.1755 8.66667 14.345 8.59643 14.4701 8.4714C14.5951 8.34638 14.6653 8.17681 14.6653 8V4.66667C14.6643 4.57955 14.6462 4.49348 14.612 4.41333Z" fill="#00C113"/>
</g>
</svg>
