<svg width="16" height="16" viewBox="0 0 16 16" fill="none" xmlns="http://www.w3.org/2000/svg">
<g clip-path="url(#clip0_697_1080)">
<circle cx="8" cy="8" r="8" fill="#8347E6"/>
<path d="M12.6735 5.27945C12.381 5.11326 12.0051 5.11326 11.6709 5.27945L9.33144 6.65054L7.74397 7.52305L5.44632 8.89413C5.15389 9.06032 4.77792 9.06032 4.44371 8.89413L2.64737 7.81388C2.35494 7.64769 2.14606 7.31531 2.14606 6.94137V4.86397C2.14606 4.53159 2.31316 4.1992 2.64737 3.99146L4.44371 2.95276C4.73614 2.78657 5.11212 2.78657 5.44632 2.95276L7.24267 4.03301C7.5351 4.1992 7.74397 4.53159 7.74397 4.90552V6.2766L9.33144 5.36255V3.94991C9.33144 3.61753 9.16434 3.28514 8.83013 3.0774L5.4881 1.12464C5.19567 0.958452 4.81969 0.958452 4.48549 1.12464L1.0599 3.11895C0.725696 3.28514 0.558594 3.61753 0.558594 3.94991V7.85543C0.558594 8.18782 0.725696 8.5202 1.0599 8.72794L4.44371 10.6807C4.73614 10.8469 5.11212 10.8469 5.44632 10.6807L7.74397 9.35116L9.33144 8.4371L11.6291 7.10757C11.9215 6.94137 12.2975 6.94137 12.6317 7.10757L14.428 8.14627C14.7205 8.31246 14.9294 8.64484 14.9294 9.01878V11.0962C14.9294 11.4286 14.7622 11.7609 14.428 11.9687L12.6735 13.0074C12.381 13.1736 12.0051 13.1736 11.6709 13.0074L9.87452 11.9687C9.58209 11.8025 9.37322 11.4701 9.37322 11.0962V9.76664L7.78575 10.6807V12.0518C7.78575 12.3842 7.95285 12.7166 8.28705 12.9243L11.6709 14.8771C11.9633 15.0432 12.3393 15.0432 12.6735 14.8771L16.0573 12.9243C16.3497 12.7581 16.5586 12.4257 16.5586 12.0518V8.10472C16.5586 7.77234 16.3915 7.43995 16.0573 7.23221L12.6735 5.27945Z" fill="white"/>
</g>
<defs>
<clipPath id="clip0_697_1080">
<rect width="16" height="16" fill="white"/>
</clipPath>
</defs>
</svg>
