<svg width="37" height="12" viewBox="0 0 37 12" fill="none" xmlns="http://www.w3.org/2000/svg">
<g id="g4158">
<path id="polygon9" d="M16.0334 11.8273H13.0361L14.9108 0.210938H17.9079L16.0334 11.8273Z" fill="#1A48FF"/>
<path id="path11" d="M26.8981 0.494553C26.307 0.259513 25.3693 0 24.2099 0C21.25 0 19.1657 1.58171 19.1529 3.84309C19.1283 5.51152 20.6452 6.43821 21.7797 6.99452C22.9393 7.56299 23.3335 7.93403 23.3335 8.44073C23.3217 9.21894 22.3965 9.57766 21.5335 9.57766C20.3369 9.57766 19.6957 9.39272 18.7213 8.95976L18.3266 8.77416L17.9072 11.3818C18.6102 11.7027 19.9053 11.9875 21.25 12C24.3949 12 26.4423 10.4428 26.4666 8.0329C26.4786 6.71054 25.6776 5.69729 23.9507 4.86931C22.9024 4.3378 22.2604 3.97941 22.2604 3.43559C22.2727 2.9412 22.8034 2.43482 23.9868 2.43482C24.9612 2.41002 25.6771 2.64473 26.2194 2.87961L26.4905 3.00296L26.8981 0.494553Z" fill="#1A48FF"/>
<path id="path13" d="M30.8824 7.712C31.1292 7.04466 32.079 4.46185 32.079 4.46185C32.0665 4.48666 32.3253 3.78219 32.4733 3.34973L32.6828 4.35066C32.6828 4.35066 33.2504 7.13122 33.3736 7.712C32.9052 7.712 31.4744 7.712 30.8824 7.712ZM34.5821 0.210938H32.2637C31.5488 0.210938 31.0056 0.420847 30.6971 1.17475L26.2451 11.8271H29.39C29.39 11.8271 29.9078 10.3934 30.0191 10.0846C30.3641 10.0846 33.4235 10.0846 33.8673 10.0846C33.9534 10.4924 34.2249 11.8271 34.2249 11.8271H37.0001L34.5821 0.210938Z" fill="#1A48FF"/>
<path id="path15" d="M10.5328 0.210938L7.59746 8.13215L7.27671 6.52564C6.73403 4.67193 5.03209 2.65791 3.13281 1.65649L5.82144 11.8149H8.99094L13.7021 0.210938H10.5328Z" fill="#1A48FF"/>
<path id="path17" d="M4.87161 0.210938H0.0493338L0 0.445648C3.76168 1.40962 6.25297 3.73325 7.27652 6.52613L6.22822 1.18739C6.05563 0.445484 5.52525 0.235411 4.87161 0.210938Z" fill="#1A48FF"/>
</g>
</svg>
