<svg width="40" height="40" viewBox="0 0 40 40" fill="none" xmlns="http://www.w3.org/2000/svg">
<g id="wrapper" clip-path="url(#clip0_4141_4244)">
<path id="Vector" d="M20 40C31.0834 40 40 31.0834 40 20C40 8.9166 31.0834 0 20 0C8.9166 0 0 8.9166 0 20C0 31.0834 8.9166 40 20 40Z" fill="#131516"/>
<g id="Group 1000004613">
<path id="Vector_2" d="M13.317 24.2117C13.4402 24.0885 13.6096 24.0166 13.7893 24.0166H30.0819C30.3796 24.0166 30.5285 24.3759 30.318 24.5864L27.0995 27.8049C26.9763 27.9281 26.8069 27.9999 26.6273 27.9999H10.3347C10.037 27.9999 9.88811 27.6406 10.0986 27.4301L13.317 24.2117Z" fill="url(#paint0_linear_4141_4244)"/>
<path id="Vector_3" d="M13.317 12.1951C13.4454 12.0719 13.6148 12 13.7893 12H30.0819C30.3796 12 30.5285 12.3593 30.318 12.5698L27.0995 15.7883C26.9763 15.9115 26.8069 15.9833 26.6273 15.9833H10.3347C10.037 15.9833 9.88811 15.624 10.0986 15.4135L13.317 12.1951Z" fill="url(#paint1_linear_4141_4244)"/>
<path id="Vector_4" d="M27.0995 18.1648C26.9763 18.0416 26.8069 17.9697 26.6273 17.9697H10.3347C10.037 17.9697 9.88811 18.329 10.0986 18.5395L13.317 21.758C13.4402 21.8812 13.6096 21.953 13.7893 21.953H30.0819C30.3796 21.953 30.5285 21.5937 30.318 21.3833L27.0995 18.1648Z" fill="url(#paint2_linear_4141_4244)"/>
</g>
</g>
<defs>
<linearGradient id="paint0_linear_4141_4244" x1="28.5255" y1="10.0773" x2="17.2497" y2="31.6749" gradientUnits="userSpaceOnUse">
<stop stop-color="#00FFA3"/>
<stop offset="1" stop-color="#DC1FFF"/>
</linearGradient>
<linearGradient id="paint1_linear_4141_4244" x1="23.5951" y1="7.5033" x2="12.3193" y2="29.1009" gradientUnits="userSpaceOnUse">
<stop stop-color="#00FFA3"/>
<stop offset="1" stop-color="#DC1FFF"/>
</linearGradient>
<linearGradient id="paint2_linear_4141_4244" x1="26.0446" y1="8.78202" x2="14.7688" y2="30.3797" gradientUnits="userSpaceOnUse">
<stop stop-color="#00FFA3"/>
<stop offset="1" stop-color="#DC1FFF"/>
</linearGradient>
<clipPath id="clip0_4141_4244">
<rect width="40" height="40" fill="white"/>
</clipPath>
</defs>
</svg>
