<svg width="16" height="16" viewBox="0 0 16 16" fill="none" xmlns="http://www.w3.org/2000/svg">
<path d="M7.1874 1.49433C7.61347 0.991473 8.38905 0.991473 8.81513 1.49433L9.32852 2.10032C9.5898 2.40868 10.0029 2.5429 10.3955 2.447L11.167 2.25852C11.8073 2.10212 12.4348 2.55801 12.4839 3.21525L12.543 4.00728C12.5732 4.41031 12.8285 4.76171 13.2024 4.91489L13.9374 5.21592C14.5473 5.4657 14.787 6.20336 14.4404 6.76394L14.0228 7.43946C13.8102 7.78325 13.8102 8.2176 14.0228 8.56138L14.4404 9.2369C14.787 9.79749 14.5473 10.5351 13.9374 10.7849L13.2024 11.086C12.8285 11.2391 12.5732 11.5906 12.543 11.9935L12.4839 12.7856C12.4348 13.4428 11.8073 13.8987 11.167 13.7423L10.3955 13.5539C10.0029 13.4579 9.5898 13.5922 9.32852 13.9005L8.81513 14.5065C8.38905 15.0094 7.61347 15.0094 7.1874 14.5065L6.67401 13.9005C6.41273 13.5922 5.99966 13.4579 5.60702 13.5539L4.83549 13.7423C4.19524 13.8987 3.56777 13.4428 3.51866 12.7856L3.4595 11.9935C3.42938 11.5906 3.17408 11.2391 2.80007 11.086L2.0651 10.7849C1.45519 10.5351 1.21552 9.79749 1.56211 9.2369L1.97978 8.56138C2.19232 8.2176 2.19232 7.78325 1.97978 7.43946L1.56211 6.76394C1.21552 6.20336 1.45519 5.4657 2.0651 5.21592L2.80007 4.91489C3.17408 4.76171 3.42938 4.41031 3.4595 4.00728L3.51866 3.21525C3.56777 2.55801 4.19524 2.10212 4.83549 2.25852L5.60702 2.447C5.99966 2.5429 6.41273 2.40868 6.67401 2.10032L7.1874 1.49433Z" fill="#2081E2"/>
<path d="M7.20082 9.39874L5.80082 7.99874L5.33415 8.4654L7.20082 10.3321L11.2008 6.33207L10.7342 5.8654L7.20082 9.39874Z" fill="white"/>
<path fill-rule="evenodd" clip-rule="evenodd" d="M10.7342 5.48828L11.5779 6.33207L7.20082 10.7092L4.95703 8.4654L5.80082 7.62161L7.20082 9.02161L10.7342 5.48828ZM10.7342 6.24253L7.20082 9.77586L5.80082 8.37586L5.71128 8.4654L7.20082 9.95495L10.8237 6.33207L10.7342 6.24253Z" fill="white"/>
</svg>
