<svg width="40" height="40" viewBox="0 0 40 40" fill="none" xmlns="http://www.w3.org/2000/svg">
<rect width="40" height="40" rx="20" fill="#1A48FF"/>
<g clip-path="url(#clip0_1801_88993)">
<path d="M16.6668 20.0007C14.8002 20.0007 13.3335 21.4673 13.3335 23.334C13.3335 25.2007 14.8002 26.6673 16.6668 26.6673C18.5335 26.6673 20.0002 25.2007 20.0002 23.334C20.0002 21.4673 18.5335 20.0007 16.6668 20.0007ZM19.3335 16.6673C17.7335 16.6673 16.2668 17.6673 15.6668 19.134C18.0002 18.534 20.3335 20.0007 20.8668 22.2673C21.0668 22.934 21.0668 23.6673 20.8668 24.334C22.9335 23.4673 23.8668 21.134 23.0002 19.134C22.4002 17.6673 20.9335 16.6673 19.3335 16.6673ZM26.1335 15.8673C25.4002 14.334 23.7335 13.334 22.0002 13.334C20.2668 13.334 18.6002 14.334 17.8668 15.8673C20.5335 15.0673 23.3335 16.534 24.1335 19.134C24.4668 20.134 24.4668 21.134 24.1335 22.134C26.4002 21.0007 27.3335 18.2007 26.1335 15.8673Z" fill="white"/>
</g>
<defs>
<clipPath id="clip0_1801_88993">
<rect width="16" height="16" fill="white" transform="translate(12 12)"/>
</clipPath>
</defs>
</svg>
