<svg width="16" height="16" viewBox="0 0 16 16" fill="none" xmlns="http://www.w3.org/2000/svg">
<g id="crypto-asset-BTC" clip-path="url(#clip0_2513_16408)">
<path id="Vector" d="M15.7587 9.9353C14.6902 14.221 10.3495 16.8293 6.0633 15.7605C1.77885 14.692 -0.829375 10.3511 0.239612 6.0656C1.3076 1.77938 5.6483 -0.829094 9.93325 0.239397C14.2192 1.30789 16.8272 5.64935 15.7587 9.9353Z" fill="#F7931A"/>
<path id="Vector_2" fill-rule="evenodd" clip-rule="evenodd" d="M11.528 6.85981C11.6872 5.79531 10.8767 5.22306 9.76847 4.84133L10.128 3.39935L9.25022 3.1806L8.90022 4.58459C8.66947 4.52709 8.43247 4.47284 8.19697 4.41909L8.54947 3.00585L7.67227 2.78711L7.31252 4.22859C7.12152 4.18509 6.93402 4.14209 6.75202 4.09684L6.75302 4.09234L5.54252 3.79009L5.30902 4.72759C5.30902 4.72759 5.96027 4.87683 5.94652 4.88608C6.30202 4.97483 6.36627 5.21006 6.35552 5.39656C6.02697 6.71446 5.69932 8.02866 5.37052 9.34681C5.32702 9.45481 5.21677 9.61681 4.96827 9.55531C4.97702 9.56806 4.33028 9.39606 4.33028 9.39606L3.89453 10.4008L5.03677 10.6855C5.16432 10.7175 5.29037 10.7504 5.41507 10.7829C5.49812 10.8045 5.58062 10.8261 5.66252 10.847L5.29927 12.3055L6.17602 12.5243L6.53577 11.0813C6.77527 11.1463 7.00777 11.2063 7.23527 11.2628L6.87677 12.699L7.75452 12.9178L8.11772 11.462C9.61447 11.7453 10.74 11.631 11.2137 10.2773C11.5955 9.18731 11.1947 8.55856 10.4072 8.14856C10.9807 8.01631 11.4127 7.63906 11.528 6.85981ZM9.52247 9.67206C9.27362 10.6721 7.70832 10.2586 6.99212 10.0695C6.92772 10.0524 6.87012 10.0372 6.82102 10.0251L7.30297 8.09281C7.36277 8.10776 7.43587 8.12411 7.51862 8.14271C8.25942 8.30891 9.77747 8.64956 9.52247 9.67206ZM7.66747 7.24601C8.26462 7.40536 9.56707 7.75296 9.79397 6.84406C10.0257 5.91441 8.75972 5.63416 8.14147 5.49731C8.07192 5.48191 8.01057 5.46831 7.96047 5.45581L7.52347 7.20831C7.56477 7.21861 7.61322 7.23151 7.66747 7.24601Z" fill="white"/>
</g>
<defs>
<clipPath id="clip0_2513_16408">
<rect width="16" height="16" fill="white"/>
</clipPath>
</defs>
</svg>
