<svg width="24" height="24" viewBox="0 0 24 24" fill="none" xmlns="http://www.w3.org/2000/svg">
<path d="M11.1859 11.1859C6.11963 11.1859 2 7.06632 2 2H5.6879C5.6879 5.03251 8.15344 7.49804 11.1859 7.49804V11.1859Z" fill="#061935"/>
<path d="M22.0024 11.1859C16.936 11.1859 12.8164 7.06632 12.8164 2H16.5043C16.5043 5.03251 18.9698 7.49804 22.0024 7.49804V11.1859Z" fill="#061935"/>
<path d="M11.1859 21.1723C6.11963 21.1723 2 17.0526 2 11.9863H5.6879C5.6879 15.0188 8.15344 17.4844 11.1859 17.4844V21.1723Z" fill="#061935"/>
<path d="M22.0024 21.1723C16.936 21.1723 12.8164 17.0526 12.8164 11.9863H16.5043C16.5043 15.0188 18.9698 17.4844 22.0024 17.4844V21.1723Z" fill="#061935"/>
</svg>
