<svg width="24" height="24" viewBox="0 0 24 24" fill="none" xmlns="http://www.w3.org/2000/svg">
<g id="injected-binance" clip-path="url(#clip0_2568_212712)">
<path id="Vector" d="M12 24C18.6274 24 24 18.6274 24 12C24 5.37258 18.6274 0 12 0C5.37258 0 0 5.37258 0 12C0 18.6274 5.37258 24 12 24Z" fill="#E9B941"/>
<path id="Vector_2" d="M6.3999 10.2171V8.74827L7.6371 8.07031L8.84178 8.79667L7.58826 9.47459V10.9435L6.3999 10.2171Z" fill="white"/>
<path id="Vector_3" d="M7.58826 11.9753L6.3999 11.2812V15.2036L9.78594 17.1244V15.7524L7.58826 14.4934V11.9753Z" fill="white"/>
<path id="Vector_4" d="M11.9835 5.60156L8.61377 7.53852L9.80213 8.20028L11.9835 6.95744L14.1812 8.20028L15.3533 7.53852L11.9835 5.60156Z" fill="white"/>
<path id="Vector_5" d="M8.61377 11.4906V10.054L9.80213 9.34375L11.9835 10.5866L14.1812 9.34375L15.4021 10.054V11.4906L13.237 12.7173V15.203L11.9835 15.9132L10.73 15.203V12.7173L8.61377 11.4906Z" fill="white"/>
<path id="Vector_6" d="M11.9839 8.10156L10.7793 8.79564L11.9839 9.48972L13.2211 8.79564L11.9839 8.10156Z" fill="white"/>
<path id="Vector_7" d="M16.3305 8.07031L15.1421 8.79667L16.3305 9.47459V10.9435L17.6002 10.2332V8.79667L16.3305 8.07031Z" fill="white"/>
<path id="Vector_8" d="M17.6002 11.2812L16.3305 11.9753V14.4934L14.1816 15.7524V17.1244L17.6002 15.2036V11.2812Z" fill="white"/>
<path id="Vector_9" d="M14.1816 14.672V13.2355L15.4026 12.5898V13.978L14.1816 14.672Z" fill="white"/>
<path id="Vector_10" d="M8.53271 12.5898L9.80247 13.2355L9.78619 14.672L8.53271 13.978V12.5898Z" fill="white"/>
<path id="Vector_11" d="M11.9839 17.011L10.7305 16.3008V17.6567L11.9839 18.3991L13.2374 17.6567V16.3008L11.9839 17.011Z" fill="white"/>
</g>
<defs>
<clipPath id="clip0_2568_212712">
<rect width="24" height="24" fill="white"/>
</clipPath>
</defs>
</svg>
