<svg width="40" height="40" viewBox="0 0 40 40" fill="none" xmlns="http://www.w3.org/2000/svg">
<g id="wrapper" clip-path="url(#clip0_4141_20083)">
<circle id="Ellipse 1403" cx="20" cy="20" r="20" fill="#345D9D"/>
<path id="Vector" d="M19.9118 20.4657L17.8295 27.4875H28.9675C29.0413 27.4849 29.1149 27.4968 29.184 27.5227C29.2532 27.5486 29.3165 27.5878 29.3705 27.6382C29.4245 27.6886 29.468 27.7491 29.4986 27.8163C29.5291 27.8835 29.5462 27.956 29.5487 28.0298V28.2138L28.5801 31.5552C28.5374 31.7133 28.4423 31.8521 28.3103 31.9489C28.1783 32.0457 28.0173 32.0947 27.8537 32.0879H10.8077L13.6649 22.3543L10.4688 23.3228L11.1951 21.0952L14.3913 20.1267L18.4106 6.47053C18.4549 6.3134 18.5504 6.1756 18.6821 6.07906C18.8137 5.98253 18.9739 5.93282 19.137 5.93785H23.447C23.5207 5.93526 23.5943 5.94724 23.6635 5.9731C23.7326 5.99897 23.796 6.03821 23.8499 6.08858C23.9039 6.13895 23.9474 6.19947 23.978 6.26667C24.0085 6.33387 24.0256 6.40644 24.0281 6.48022V6.66424L20.6382 18.1896L23.8344 17.2211L23.1564 19.5456L19.9118 20.4657Z" fill="white"/>
</g>
<defs>
<clipPath id="clip0_4141_20083">
<rect width="40" height="40" fill="white"/>
</clipPath>
</defs>
</svg>
