<svg width="24" height="24" viewBox="0 0 24 24" fill="none" xmlns="http://www.w3.org/2000/svg">
<g clip-path="url(#clip0_3068_2146)">
<path d="M23.6381 14.903C22.0353 21.3315 15.5243 25.2439 9.09495 23.6408C2.66827 22.038 -1.24406 15.5266 0.359418 9.0984C1.9614 2.66907 8.47245 -1.24364 14.8999 0.359096C21.3288 1.96183 25.2408 8.47403 23.6381 14.903Z" fill="#061935"/>
<path d="M8 12.0031V11.15H13.3156L13.0531 12.0031H8ZM8 13.985V13.1319H12.7906L12.5281 13.985H8ZM12.5938 8C13.1275 8 13.5956 8.07875 13.9981 8.23625C14.4006 8.385 14.7419 8.6125 15.0219 8.91875C15.3106 9.21625 15.5338 9.58375 15.6912 10.0213L14.7463 10.4675C14.5975 9.96875 14.3481 9.58813 13.9981 9.32563C13.6569 9.05438 13.2194 8.91875 12.6856 8.91875C12.1606 8.91875 11.7013 9.06313 11.3075 9.35187C10.9138 9.63188 10.6031 10.0388 10.3756 10.5725C10.1569 11.0975 10.0475 11.7275 10.0475 12.4625C10.0475 13.5475 10.2706 14.4094 10.7169 15.0481C11.1631 15.6869 11.8194 16.0063 12.6856 16.0063C13.2369 16.0063 13.7006 15.8575 14.0769 15.56C14.4619 15.2538 14.7331 14.8075 14.8906 14.2213L15.8488 14.5756C15.6912 15.0656 15.4594 15.49 15.1531 15.8488C14.8556 16.1988 14.4925 16.4656 14.0638 16.6494C13.6438 16.8331 13.1713 16.925 12.6463 16.925C11.8675 16.925 11.2069 16.7456 10.6644 16.3869C10.1219 16.0194 9.70625 15.5031 9.4175 14.8381C9.1375 14.1731 8.9975 13.3813 8.9975 12.4625C8.9975 11.5438 9.15063 10.7519 9.45688 10.0869C9.76313 9.42188 10.1831 8.91 10.7169 8.55125C11.2594 8.18375 11.885 8 12.5938 8Z" fill="white"/>
</g>
<defs>
<clipPath id="clip0_3068_2146">
<rect width="24" height="24" fill="white"/>
</clipPath>
</defs>
</svg>
