<svg width="16" height="16" viewBox="0 0 16 16" fill="none" xmlns="http://www.w3.org/2000/svg">
<g id="wrapper">
<path id="Vector" d="M7.9987 1.33301C6.68016 1.33301 5.39123 1.724 4.2949 2.45654C3.19857 3.18909 2.34409 4.23028 1.8395 5.44845C1.33492 6.66663 1.2029 8.00707 1.46013 9.30028C1.71737 10.5935 2.35231 11.7814 3.28466 12.7137C4.21701 13.6461 5.40489 14.281 6.6981 14.5382C7.99131 14.7955 9.33175 14.6635 10.5499 14.1589C11.7681 13.6543 12.8093 12.7998 13.5418 11.7035C14.2744 10.6071 14.6654 9.31822 14.6654 7.99967C14.6634 6.23217 13.9604 4.53762 12.7106 3.2878C11.4608 2.03798 9.76621 1.33497 7.9987 1.33301ZM7.9987 13.333C6.94387 13.333 5.91272 13.0202 5.03566 12.4342C4.1586 11.8481 3.47501 11.0152 3.07134 10.0407C2.66768 9.06611 2.56206 7.99376 2.76785 6.95919C2.97363 5.92463 3.48158 4.97432 4.22746 4.22844C4.97334 3.48256 5.92365 2.97461 6.95822 2.76882C7.99278 2.56303 9.06514 2.66865 10.0397 3.07232C11.0142 3.47598 11.8472 4.15957 12.4332 5.03663C13.0192 5.9137 13.332 6.94484 13.332 7.99967C13.3304 9.41367 12.768 10.7693 11.7682 11.7691C10.7683 12.769 9.41269 13.3314 7.9987 13.333ZM7.9987 7.66634C7.82189 7.66634 7.65232 7.73658 7.5273 7.8616C7.40227 7.98663 7.33203 8.1562 7.33203 8.33301V10.333C7.33203 10.5098 7.40227 10.6794 7.5273 10.8044C7.65232 10.9294 7.82189 10.9997 7.9987 10.9997C8.17551 10.9997 8.34508 10.9294 8.47011 10.8044C8.59513 10.6794 8.66537 10.5098 8.66537 10.333V8.33301C8.66537 8.1562 8.59513 7.98663 8.47011 7.8616C8.34508 7.73658 8.17551 7.66634 7.9987 7.66634ZM7.9987 4.99967C7.83388 4.99967 7.67277 5.04855 7.53573 5.14012C7.39868 5.23168 7.29187 5.36183 7.2288 5.5141C7.16573 5.66638 7.14923 5.83393 7.18138 5.99558C7.21353 6.15723 7.2929 6.30572 7.40945 6.42226C7.52599 6.53881 7.67448 6.61817 7.83613 6.65033C7.99778 6.68248 8.16533 6.66598 8.3176 6.60291C8.46988 6.53983 8.60002 6.43302 8.69159 6.29598C8.78316 6.15894 8.83203 5.99783 8.83203 5.83301C8.83203 5.61199 8.74424 5.40003 8.58796 5.24375C8.43168 5.08747 8.21972 4.99967 7.9987 4.99967Z" fill="#061935"/>
</g>
</svg>
