<svg width="24" height="24" viewBox="0 0 24 24" fill="none" xmlns="http://www.w3.org/2000/svg">
<g clip-path="url(#clip0_557_12332)">
<g clip-path="url(#clip1_557_12332)">
<path fill-rule="evenodd" clip-rule="evenodd" d="M12 24C18.6275 24 24 18.6275 24 12C24 5.37258 18.6275 0 12 0C5.37258 0 0 5.37258 0 12C0 18.6275 5.37258 24 12 24Z" fill="#23292F"/>
<path d="M19.4707 5.74512H17.3027L13.8724 9.13857C13.3729 9.63079 12.6999 9.90672 11.9987 9.90672C11.2975 9.90672 10.6244 9.63079 10.125 9.13857L6.69726 5.74512H4.52753L9.04101 10.2123C10.6761 11.8292 13.3251 11.8292 14.959 10.2123L19.4707 5.74512Z" fill="#FCFCFD"/>
<path d="M4.5 18.167H6.66943L10.1276 14.746C10.6271 14.2538 11.3001 13.9778 12.0013 13.9778C12.7025 13.9778 13.3756 14.2538 13.875 14.746L17.332 18.167H19.5L14.959 13.6723C13.3239 12.0554 10.6749 12.0554 9.04102 13.6723L4.5 18.167Z" fill="#FCFCFD"/>
</g>
</g>
<defs>
<clipPath id="clip0_557_12332">
<rect width="24" height="24" fill="white"/>
</clipPath>
<clipPath id="clip1_557_12332">
<rect width="24" height="24" fill="white"/>
</clipPath>
</defs>
</svg>
