<svg width="203" height="24" viewBox="0 0 203 24" fill="none" xmlns="http://www.w3.org/2000/svg">
<path d="M36.5724 18.147C35.1259 17.4373 34.0974 16.4085 33.487 15.0608C33.069 14.1622 32.8633 13.1465 32.8633 12.0006C32.8633 10.9263 33.0623 9.93012 33.4737 9.01858C33.8785 8.12007 34.4756 7.35829 35.2652 6.72021C36.0548 6.08214 37.0103 5.60684 38.1383 5.28129C39.2596 4.95574 40.5203 4.79297 41.9204 4.79297C43.3204 4.79297 44.5546 4.95574 45.6759 5.27478C46.7906 5.59382 47.7461 6.06912 48.5291 6.68766C49.312 7.31271 49.9092 8.05496 50.3139 8.92743C50.7585 9.90407 50.9775 10.9263 50.9775 12.0071C50.9775 13.1596 50.7452 14.2208 50.2741 15.178C49.6438 16.4867 48.6153 17.4828 47.1755 18.1795C45.7356 18.8697 43.9839 19.2147 41.9071 19.2147C39.8303 19.2147 38.0321 18.8566 36.5856 18.147H36.5724ZM45.0655 15.803C45.9281 15.3733 46.5385 14.7547 46.9101 13.9474C47.1556 13.3354 47.2816 12.6843 47.2816 12.0071C47.2816 11.2779 47.1489 10.6138 46.8902 10.0278C46.512 9.22042 45.8949 8.60839 45.0389 8.19169C44.183 7.77499 43.1346 7.56664 41.8938 7.56664C40.653 7.56664 39.6246 7.77499 38.7686 8.19169C37.9127 8.60839 37.2956 9.22042 36.9174 10.0278C36.6586 10.6203 36.5259 11.2779 36.5259 12.0071C36.5259 12.6843 36.6586 13.3354 36.9174 13.9474C37.2956 14.7547 37.9193 15.3733 38.7819 15.803C39.6445 16.2327 40.6862 16.4476 41.9137 16.4476C43.1413 16.4476 44.2095 16.2327 45.0655 15.803Z" fill="#061935"/>
<path d="M54.9254 18.1274C53.459 17.4047 52.4306 16.3629 51.8268 15.0022C51.422 14.0906 51.2163 13.0944 51.2163 12.0006C51.2163 10.9068 51.4154 9.9171 51.8268 9.01858C52.2382 8.12007 52.8353 7.35829 53.6382 6.72021C54.4411 6.08865 55.4098 5.60684 56.5378 5.28129C57.6658 4.95574 58.9132 4.79297 60.2734 4.79297C61.6336 4.79297 62.9408 4.97528 64.1219 5.33989C65.3029 5.7045 66.2916 6.23189 67.0878 6.92856C67.6651 7.45595 68.1096 8.05496 68.4281 8.72559C68.7466 9.39622 68.9258 10.1254 68.9656 10.9068H65.3958C65.3295 10.4835 65.1968 10.0929 64.9911 9.73479C64.7854 9.37669 64.5332 9.06416 64.2148 8.7907C63.7702 8.38051 63.2128 8.07449 62.536 7.86614C61.8659 7.6643 61.1161 7.56013 60.2933 7.56013C59.0525 7.56013 57.9909 7.77499 57.1217 8.20471C56.2458 8.63444 55.6288 9.25298 55.2572 10.0603C54.9851 10.6593 54.8458 11.3104 54.8458 12.0006C54.8458 12.6908 54.9785 13.3484 55.2373 13.9213C55.6022 14.7547 56.2259 15.3798 57.1084 15.803C57.9909 16.2262 59.0459 16.4346 60.2734 16.4346C61.1227 16.4346 61.8991 16.3304 62.6024 16.1155C63.3057 15.9007 63.8896 15.5947 64.3475 15.1845C64.646 14.9045 64.8915 14.5855 65.084 14.2404C65.2764 13.8953 65.3826 13.5242 65.4091 13.127H68.9789C68.939 13.9344 68.7665 14.6701 68.448 15.3277C68.1295 15.9853 67.6916 16.5648 67.1144 17.0661C66.3181 17.7693 65.3228 18.3032 64.1351 18.6613C62.9474 19.0194 61.6469 19.2017 60.2336 19.2017C58.1435 19.2017 56.3653 18.8371 54.9055 18.1144L54.9254 18.1274Z" fill="#061935"/>
<path d="M69.9535 5.21678H81.8505V7.75606H73.3441V10.7381H81.7908V13.2188H73.3441V16.2594H81.8505V18.7986H69.9535V5.21678Z" fill="#061935"/>
<path d="M94.7024 15.8101H86.5676L85.1344 18.7921H81.4717L88.2728 5.21678H92.9573L99.7783 18.7921H96.1356L94.7024 15.8101ZM93.4682 13.2708L90.6482 7.38493H90.6084L87.7884 13.2708H93.4682Z" fill="#061935"/>
<path d="M100.091 5.21678H103.913L112.221 15.0614V5.21678H115.591V18.7921H111.65L103.442 9.13638V18.7921H100.091V5.21678Z" fill="#061935"/>
<path d="M118.126 5.21678H122.107L127.714 14.5795L133.353 5.21678H137.315V18.7921H134.103V9.31218L128.477 18.7921H126.97L121.324 9.31218V18.7921H118.132V5.21678H118.126Z" fill="#061935"/>
<path d="M142.039 18.147C140.592 17.4373 139.564 16.4085 138.953 15.0608C138.535 14.1622 138.33 13.1465 138.33 12.0006C138.33 10.9263 138.529 9.93012 138.94 9.01858C139.345 8.12007 139.942 7.35829 140.732 6.72021C141.521 6.08214 142.477 5.60684 143.605 5.28129C144.726 4.95574 145.987 4.79297 147.387 4.79297C148.787 4.79297 150.021 4.95574 151.142 5.27478C152.257 5.59382 153.213 6.06912 153.995 6.68766C154.778 7.31271 155.376 8.05496 155.78 8.92743C156.225 9.90407 156.444 10.9263 156.444 12.0071C156.444 13.1596 156.212 14.2208 155.741 15.178C155.11 16.4867 154.082 17.4828 152.642 18.1795C151.202 18.8697 149.45 19.2147 147.374 19.2147C145.297 19.2147 143.499 18.8566 142.052 18.147H142.039ZM150.532 15.803C151.394 15.3733 152.005 14.7547 152.376 13.9474C152.622 13.3354 152.748 12.6843 152.748 12.0071C152.748 11.2779 152.615 10.6138 152.357 10.0278C151.978 9.22042 151.361 8.60839 150.505 8.19169C149.649 7.77499 148.601 7.56664 147.36 7.56664C146.119 7.56664 145.091 7.77499 144.235 8.19169C143.379 8.60839 142.762 9.22042 142.384 10.0278C142.125 10.6203 141.992 11.2779 141.992 12.0071C141.992 12.6843 142.125 13.3354 142.384 13.9474C142.762 14.7547 143.386 15.3733 144.248 15.803C145.111 16.2327 146.153 16.4476 147.38 16.4476C148.608 16.4476 149.676 16.2327 150.532 15.803Z" fill="#061935"/>
<path d="M157.411 5.21678H161.233L169.54 15.0614V5.21678H172.911V18.7921H168.97L160.762 9.13638V18.7921H157.411V5.21678Z" fill="#061935"/>
<path d="M174.678 5.21678H186.574V7.75606H178.068V10.7381H186.515V13.2188H178.068V16.2594H186.574V18.7986H174.678V5.21678Z" fill="#061935"/>
<path d="M192.645 12.8281L186.275 5.21678H190.29L194.304 10.0414L198.358 5.21678H202.372L196.003 12.8281V18.7921H192.632V12.8281H192.645Z" fill="#061935"/>
<path d="M11.7178 11.4984C5.25511 11.4984 0 6.34168 0 0H4.70438C4.70438 3.79589 7.84948 6.88209 11.7178 6.88209V11.4984Z" fill="#061935"/>
<path d="M25.513 11.4984C19.0503 11.4984 13.7951 6.34168 13.7951 0H18.4995C18.4995 3.79589 21.6446 6.88209 25.513 6.88209V11.4984Z" fill="#061935"/>
<path d="M11.7178 24C5.25511 24 0 18.8433 0 12.5016H4.70438C4.70438 16.2975 7.84948 19.3837 11.7178 19.3837V24Z" fill="#061935"/>
<path d="M25.513 24C19.0503 24 13.7951 18.8433 13.7951 12.5016H18.4995C18.4995 16.2975 21.6446 19.3837 25.513 19.3837V24Z" fill="#061935"/>
</svg>
