<svg width="40" height="40" viewBox="0 0 40 40" fill="none" xmlns="http://www.w3.org/2000/svg">
<circle cx="20" cy="20" r="20" fill="#292929"/>
<path d="M9.97836 24.7608C9.17375 24.7293 8.51576 24.5111 8.00114 24.1063C7.90286 24.029 7.66876 23.7969 7.59046 23.6993C7.38175 23.4394 7.24 23.1865 7.14523 22.906C6.85363 22.042 7.00348 20.9083 7.57372 19.6644C8.06189 18.5994 8.81492 17.5429 10.1287 16.0801C10.3223 15.8648 10.8988 15.2351 10.9023 15.2351C10.9037 15.2351 10.8723 15.2891 10.8326 15.3546C10.4911 15.9212 10.1987 16.5889 10.0394 17.1667C9.78369 18.094 9.81447 18.8898 10.1298 19.5069C10.3475 19.9321 10.7203 20.3003 11.1396 20.5037C11.8738 20.8599 12.9484 20.8893 14.2611 20.5898C14.3516 20.569 18.8293 19.3919 24.212 17.9737C29.5948 16.5555 33.9993 15.3961 34.0001 15.3971C34.0018 15.3985 21.4947 20.6984 15.002 23.448C13.9738 23.8833 13.6987 23.9932 13.2154 24.1613C11.9796 24.591 10.8729 24.7961 9.97809 24.7608H9.97836Z" fill="white"/>
</svg>
