<svg width="38" height="38" viewBox="0 0 38 38" fill="none" xmlns="http://www.w3.org/2000/svg">
<path d="M22.4542 26.1861L23.7961 26.4227C24.5773 26.5621 25.3261 26.037 25.4623 25.2558L27.4623 13.9171C27.6017 13.1359 27.0765 12.3871 26.2953 12.2509L19.3359 11.0224C18.5547 10.883 17.8059 11.4082 17.6697 12.1894L17.5271 12.9932" stroke="white" stroke-width="1.4" stroke-miterlimit="10"/>
<path d="M19.6534 13.9138C19.4816 13.272 18.8982 12.8474 18.2628 12.8474C18.1397 12.8474 18.0132 12.8636 17.8901 12.896L11.0667 14.7242C10.2985 14.9284 9.84469 15.7193 10.0489 16.4875L13.0278 27.6091C13.1996 28.2509 13.7831 28.6756 14.4184 28.6756C14.5416 28.6756 14.668 28.6593 14.7912 28.6269L21.6178 26.7987C22.386 26.5945 22.8398 25.8036 22.6356 25.0354L19.6534 13.9138Z" stroke="white" stroke-width="1.4" stroke-miterlimit="10"/>
<path d="M19.3716 22.8198C19.5568 22.7781 19.7171 22.663 19.8158 22.5009C19.9145 22.3388 19.9432 22.1435 19.8952 21.9599L19.507 20.4745C19.4129 20.1142 19.0531 19.8907 18.6884 19.9659C17.5914 20.1921 16.4913 19.5481 16.152 18.4809C16.0392 18.126 15.6683 17.9216 15.308 18.0157L13.823 18.4038C13.6394 18.4518 13.4831 18.5723 13.39 18.7377C13.2969 18.9031 13.275 19.0992 13.3292 19.2811C14.0983 21.8602 16.746 23.4108 19.3716 22.8198Z" stroke="white" stroke-width="1.4" stroke-linejoin="round"/>
</svg>
