<svg width="40" height="40" viewBox="0 0 40 40" fill="none" xmlns="http://www.w3.org/2000/svg">
<g id="OpenSea-logo" clip-path="url(#clip0_2533_23675)">
<path id="Vector" d="M40 20C40 31.0451 31.0451 40 20 40C8.95492 40 0 31.0451 0 20C0 8.95492 8.95492 0 20 0C31.0474 0 40 8.95492 40 20Z" fill="#2081E2"/>
<path id="Vector_2" d="M9.86842 20.6716L9.9547 20.536L15.1575 12.3968C15.2335 12.2777 15.4123 12.29 15.4698 12.4194C16.339 14.3674 17.089 16.79 16.7377 18.2983C16.5877 18.9188 16.1767 19.7592 15.7143 20.536C15.6548 20.649 15.589 20.76 15.5191 20.8668C15.4863 20.9161 15.4308 20.9449 15.3712 20.9449H10.0205C9.87662 20.9449 9.79238 20.7887 9.86842 20.6716Z" fill="white"/>
<path id="Vector_3" d="M33.0562 22.1844V23.4728C33.0562 23.5467 33.011 23.6125 32.9452 23.6412C32.5425 23.8138 31.1637 24.4467 30.5904 25.244C29.1274 27.2803 28.0096 30.192 25.5109 30.192H15.0868C11.3923 30.192 8.39844 27.1879 8.39844 23.481V23.3618C8.39844 23.2632 8.47856 23.183 8.5772 23.183H14.3882C14.5033 23.183 14.5875 23.2899 14.5773 23.4029C14.5362 23.781 14.606 24.1673 14.7848 24.5186C15.13 25.2194 15.8451 25.657 16.6177 25.657H19.4944V23.4111H16.6506C16.5047 23.4111 16.4184 23.2426 16.5026 23.1234C16.5334 23.0762 16.5684 23.0269 16.6054 22.9714C16.8746 22.5892 17.2588 21.9954 17.641 21.3193C17.902 20.8632 18.1547 20.3762 18.3581 19.8871C18.3992 19.7988 18.4321 19.7083 18.465 19.62C18.5204 19.4638 18.578 19.3179 18.6191 19.172C18.6602 19.0487 18.693 18.9193 18.7259 18.798C18.8225 18.383 18.8636 17.9432 18.8636 17.4871C18.8636 17.3083 18.8554 17.1213 18.839 16.9426C18.8307 16.7474 18.8061 16.5521 18.7814 16.3569C18.765 16.1843 18.7342 16.0138 18.7013 15.835C18.6602 15.574 18.6026 15.3152 18.5369 15.0542L18.5143 14.9556C18.465 14.7768 18.4239 14.6062 18.3664 14.4275C18.204 13.8665 18.017 13.3199 17.8198 12.8083C17.7478 12.6048 17.6656 12.4096 17.5834 12.2144C17.4622 11.9206 17.3389 11.6535 17.2259 11.4007C17.1684 11.2856 17.1191 11.1808 17.0698 11.074C17.0143 10.9528 16.9568 10.8315 16.8992 10.7165C16.8581 10.6281 16.8108 10.5459 16.778 10.4637L16.4266 9.8144C16.3773 9.72604 16.4595 9.62124 16.556 9.64796L18.7547 10.2438H18.7609C18.765 10.2438 18.767 10.2459 18.7691 10.2459L19.0588 10.326L19.3773 10.4165L19.4944 10.4493V9.14248C19.4944 8.51164 19.9999 8 20.6246 8C20.9369 8 21.2205 8.1274 21.4239 8.33492C21.6273 8.54248 21.7547 8.82604 21.7547 9.14248V11.0822L21.989 11.148C22.0075 11.1542 22.026 11.1624 22.0424 11.1747C22.1 11.2178 22.1821 11.2815 22.2869 11.3596C22.3691 11.4254 22.4575 11.5055 22.5643 11.5877C22.776 11.7582 23.0287 11.9781 23.3061 12.2309C23.3801 12.2946 23.452 12.3603 23.5178 12.4261C23.8753 12.759 24.276 13.1494 24.6582 13.5809C24.765 13.7021 24.8698 13.8254 24.9767 13.9548C25.0835 14.0864 25.1966 14.2158 25.2952 14.3453C25.4246 14.5179 25.5644 14.6966 25.6856 14.8836C25.7431 14.972 25.8089 15.0624 25.8644 15.1508C26.0205 15.387 26.1582 15.6316 26.2897 15.8761C26.3452 15.9891 26.4027 16.1124 26.452 16.2336C26.5979 16.5604 26.713 16.8932 26.787 17.2261C26.8096 17.298 26.826 17.3761 26.8342 17.446V17.4624C26.8589 17.561 26.8671 17.6658 26.8753 17.7727C26.9082 18.1138 26.8918 18.4549 26.8178 18.798C26.787 18.944 26.7459 19.0816 26.6966 19.2275C26.6472 19.3672 26.5979 19.5131 26.5342 19.6508C26.411 19.9364 26.265 20.222 26.0924 20.4892C26.037 20.5878 25.9712 20.6926 25.9054 20.7912C25.8335 20.896 25.7596 20.9946 25.6938 21.0912C25.6034 21.2145 25.5068 21.344 25.4082 21.459C25.3198 21.5803 25.2294 21.7015 25.1308 21.8084C24.9931 21.9707 24.8616 22.1248 24.7239 22.2728C24.6418 22.3693 24.5534 22.468 24.463 22.5563C24.3746 22.6549 24.2842 22.7433 24.202 22.8255C24.0644 22.9632 23.9493 23.07 23.8527 23.1584L23.6267 23.3659C23.5938 23.3947 23.5506 23.4111 23.5054 23.4111H21.7547V25.657H23.9575C24.4506 25.657 24.9192 25.4824 25.2972 25.1618C25.4267 25.0488 25.9918 24.5598 26.6596 23.8221C26.6822 23.7974 26.711 23.7789 26.7438 23.7707L32.8281 22.0118C32.9412 21.9789 33.0562 22.0652 33.0562 22.1844Z" fill="white"/>
</g>
<defs>
<clipPath id="clip0_2533_23675">
<rect width="40" height="40" fill="white"/>
</clipPath>
</defs>
</svg>
