<svg width="16" height="16" viewBox="0 0 16 16" fill="none" xmlns="http://www.w3.org/2000/svg">
<g clip-path="url(#clip0_697_3239)">
<path fill-rule="evenodd" clip-rule="evenodd" d="M7.61995 16C5.26821 15.9982 3.37374 15.4339 2.05012 14.4203C0.710629 13.3945 0 11.9388 0 10.2915C0 8.70439 0.709018 7.55994 1.51133 6.78631C2.14011 6.18008 2.8339 5.79186 3.31702 5.56846C3.20778 5.23317 3.07147 4.79427 2.9495 4.34087C2.78637 3.73425 2.62629 3.02241 2.62629 2.50086C2.62629 1.88352 2.76083 1.26344 3.12376 0.781684C3.50723 0.272699 4.08453 0 4.77897 0C5.32171 0 5.78252 0.201322 6.14319 0.548621C6.48799 0.880533 6.71759 1.32144 6.87605 1.78104C7.15447 2.58859 7.26291 3.60318 7.29328 4.61575H7.95847C7.98892 3.60318 8.09728 2.58859 8.37578 1.78104C8.53424 1.32144 8.76368 0.880613 9.10856 0.548621C9.46931 0.201403 9.93004 0 10.4728 0C11.1673 0 11.7445 0.272699 12.128 0.781684C12.4909 1.26344 12.6255 1.88352 12.6255 2.50086C12.6255 3.02241 12.4654 3.73425 12.3022 4.34087C12.1803 4.79427 12.044 5.23317 11.9347 5.56846C12.4179 5.79186 13.1117 6.18008 13.7404 6.78639C14.5427 7.55994 15.2517 8.70439 15.2517 10.2915C15.2517 11.9388 14.5412 13.3945 13.2016 14.4203C11.878 15.4339 9.98354 15.9982 7.6318 16H7.61995Z" fill="#633001"/>
<path d="M4.77908 0.586914C3.76199 0.586914 3.29377 1.35353 3.29377 2.41364C3.29377 3.25631 3.8378 4.9439 4.06096 5.60088C4.11123 5.74871 4.03228 5.91055 3.88839 5.96783C3.0732 6.29257 0.66748 7.48149 0.66748 10.2044C0.66748 13.0726 3.11227 15.2353 7.62071 15.2387L7.62603 15.2386L7.63142 15.2387C12.1398 15.2353 14.5846 13.0726 14.5846 10.2044C14.5846 7.48149 12.1789 6.29257 11.3637 5.96783C11.2198 5.91063 11.1409 5.74871 11.1911 5.60088C11.4143 4.94398 11.9584 3.25631 11.9584 2.41364C11.9584 1.35345 11.4901 0.586914 10.473 0.586914C9.00886 0.586914 8.64384 2.68207 8.61782 4.93077C8.61612 5.08085 8.49593 5.20266 8.34737 5.20266H6.90476C6.75613 5.20266 6.63601 5.08085 6.63424 4.93077C6.60822 2.68207 6.24328 0.586914 4.77908 0.586914Z" fill="#D1884F"/>
<path d="M7.63142 14.32C4.31891 14.32 0.6732 12.5288 0.66748 10.21V10.2208C0.66748 13.0913 3.11614 15.2551 7.63142 15.2551C12.1467 15.2551 14.5954 13.0913 14.5954 10.2208V10.21C14.5897 12.5288 10.9439 14.32 7.63142 14.32Z" fill="#FEDC90"/>
<path d="M5.79094 9.49823C5.79094 10.2811 5.42471 10.6888 4.97292 10.6888C4.52114 10.6888 4.15491 10.2811 4.15491 9.49823C4.15491 8.71534 4.52114 8.30762 4.97292 8.30762C5.42471 8.30762 5.79094 8.71534 5.79094 9.49823ZM11.1081 9.49823C11.1081 10.2811 10.7418 10.6888 10.29 10.6888C9.83825 10.6888 9.47202 10.2811 9.47202 9.49823C9.47202 8.71534 9.83825 8.30762 10.29 8.30762C10.7418 8.30762 11.1081 8.71534 11.1081 9.49823Z" fill="#633001"/>
</g>
<defs>
<clipPath id="clip0_697_3239">
<rect width="16" height="16" fill="white"/>
</clipPath>
</defs>
</svg>
