<svg width="40" height="40" viewBox="0 0 40 40" fill="none" xmlns="http://www.w3.org/2000/svg">
<g clip-path="url(#clip0_2255_49137)">
<path d="M22.0128 8.71862C21.8313 8.68623 20.9844 8.54327 19.9958 8.54327C19.0072 8.54327 18.1614 8.68623 17.9876 8.71862C17.8846 8.73426 17.8448 8.63932 17.9245 8.58348C17.9953 8.52763 19.9969 6.98852 19.9969 6.98852C19.9969 6.98852 22.0062 8.52651 22.0693 8.58348C22.1479 8.6382 22.108 8.73426 22.0139 8.71862H22.0128ZM18.5478 18.6971C18.5478 18.6971 18.4371 18.7373 18.4138 18.8334C18.8334 19.1595 19.1179 19.9012 19.9958 19.9012C20.8737 19.9012 21.167 19.1595 21.5855 18.8334C21.5534 18.7373 21.4516 18.6971 21.4516 18.6971C21.4516 18.6971 20.898 18.8334 19.9958 18.8334C19.0935 18.8334 18.5478 18.6971 18.5478 18.6971ZM19.9958 17.454C19.7511 17.454 19.7035 17.3658 19.5375 17.3658C19.3714 17.3658 19.0714 17.4931 18.9994 17.6048C19.0072 17.6684 19.0315 17.7165 19.0714 17.7645C19.4268 17.8203 19.5851 18.0192 19.9958 18.0192C20.4065 18.0192 20.5648 17.8203 20.9213 17.7645C20.9689 17.7165 20.9844 17.6684 20.9932 17.6048C20.9301 17.4931 20.6213 17.3658 20.463 17.3658C20.2969 17.3658 20.2415 17.454 19.9958 17.454ZM39.9759 21.2627C39.9526 21.7496 39.905 22.2277 39.8496 22.6979C37.5879 23.0799 36.7732 21.0393 34.4561 21.1432C34.59 21.6368 34.7096 22.1473 34.7882 22.6655C36.7023 22.6566 37.4772 24.466 39.6061 24.1957C39.4943 24.7463 39.3603 25.2958 39.202 25.8297C37.5171 25.9961 36.9237 24.3074 34.9786 24.3554C34.9941 24.6346 35.0019 24.9127 35.0019 25.1998C35.0019 25.3595 35.0019 25.5181 34.9941 25.67C36.6547 25.6544 37.1927 27.2002 38.7747 27.1276C38.5854 27.6704 38.364 28.1965 38.1182 28.7136C36.9791 28.6577 36.5916 27.1834 34.8591 27.3041C34.8037 27.6782 34.7406 28.0535 34.662 28.4198C36.1643 28.316 36.4886 29.711 37.5647 29.8227C37.2879 30.3253 36.9957 30.819 36.6791 31.2892C36.0469 30.9474 35.4934 29.9098 34.2823 29.8461C34.4007 29.4642 34.5114 29.0654 34.6055 28.6756C33.5306 28.6756 32.304 28.2523 31.2755 27.3052C31.6076 25.3919 28.6651 23.4474 28.6651 22.0445C28.6651 20.5222 29.4323 19.6845 29.4323 17.6294C29.4323 16.1159 28.6961 14.4573 27.5891 13.3337C27.3754 13.1103 27.154 12.935 26.9005 12.7752C27.9212 14.0429 28.6961 15.5497 28.6961 17.2865C28.6961 19.2154 27.8105 20.2362 27.8105 22.0211C27.8105 23.8059 30.3965 25.345 30.3965 27.1767C30.3965 27.9027 30.1674 28.612 29.409 29.9992C30.5714 31.1708 32.0815 31.8086 33.0623 31.8086C33.38 31.8086 33.545 31.7047 33.6646 31.4579C33.7598 31.2423 33.8539 31.0189 33.9413 30.8045C34.993 30.8435 35.4768 31.8086 36.0536 32.1905C35.737 32.6206 35.3971 33.0349 35.0484 33.4415C34.6609 33.0037 34.1306 32.2777 33.3645 32.071C33.2295 32.3424 33.0878 32.6049 32.9295 32.8685C33.5937 33.0439 34.0454 33.7207 34.393 34.1597C34.021 34.5584 33.6258 34.9326 33.214 35.2911C32.9605 34.8924 32.5652 34.383 32.1147 34.1116C31.9564 34.335 31.7826 34.5584 31.6088 34.7728C31.9807 35.0275 32.3206 35.4899 32.5343 35.873C32.0671 36.255 31.5767 36.6146 31.0707 36.9575C30.8172 34.9091 28.0485 33.5063 28.7924 31.1317C28.5478 31.5461 28.2544 32.0722 28.2544 32.7021C28.2544 34.4233 30.0744 35.787 30.2161 37.5004C29.8441 37.7237 29.4566 37.9382 29.0603 38.1381C28.9972 36.265 27.0754 34.2088 27.0754 32.663C27.0754 30.9418 29.3149 29.2117 29.3149 27.179C29.3149 25.1462 26.7278 23.7445 26.7278 21.9596C26.7278 20.1748 27.8271 19.1461 27.8271 16.8676C27.8271 15.1934 27.0366 13.4968 25.8189 12.4111C25.6052 12.2201 25.3916 12.0694 25.1391 11.9331C26.2849 13.3203 26.9492 14.5869 26.9492 16.5002C26.9492 18.6513 25.6927 19.8397 25.6927 21.9429C25.6927 24.046 28.2234 25.2188 28.2234 27.179C28.2234 29.1391 25.8665 30.7978 25.8665 32.8149C25.8665 34.6478 27.9466 36.4806 27.9787 38.6564C27.5271 38.8552 27.0599 39.0383 26.5861 39.2059C26.8551 37.0067 24.5137 34.7349 24.5137 32.9411C24.5137 30.9809 26.958 29.2989 26.958 27.1778C26.958 25.0568 24.4738 24.0862 24.4738 21.9105C24.4738 19.7347 26.0004 18.5396 26.0004 16.1494C26.0004 14.2764 25.0827 12.5943 23.7465 11.5589C23.7144 11.5344 23.6911 11.5109 23.6601 11.4863C23.5339 11.3992 23.4299 11.5109 23.5251 11.6226C24.4661 12.8088 24.9731 14.0217 24.9731 15.7987C24.9731 17.9979 23.2251 19.7761 23.2251 21.9038C23.2251 24.4057 25.5742 25.1227 25.5742 27.179C25.5742 29.2352 23.0512 30.886 23.0512 33.0696C23.0512 35.0934 25.4403 37.3417 25.0284 39.685C24.5535 39.8045 24.0631 39.9162 23.5738 40.0034C24.0255 37.0938 21.6829 34.9985 21.6829 33.1008C21.6829 31.0368 24.2934 29.195 24.2934 27.179C24.2934 25.2824 22.4191 24.6614 22.1734 22.7169C22.1412 22.4533 21.9287 22.2545 21.6353 22.3025C21.2556 22.374 20.7652 22.6287 19.998 22.6287C19.2308 22.6287 18.7481 22.374 18.3607 22.3025C18.0762 22.2545 17.8625 22.4533 17.8226 22.7169C17.578 24.6614 15.7037 25.2824 15.7037 27.179C15.7037 29.195 18.3219 31.0368 18.3219 33.1008C18.3219 34.9973 15.9728 37.0938 16.4233 40.0034C15.9329 39.9162 15.4425 39.8045 14.9687 39.685C14.5579 37.3417 16.947 35.0945 16.947 33.0696C16.947 30.886 14.4229 29.2441 14.4229 27.179C14.4229 25.1138 16.7809 24.4057 16.7809 21.9038C16.7809 19.7761 15.0251 17.9979 15.0251 15.7987C15.0251 14.0217 15.531 12.8088 16.4798 11.6226C16.5661 11.5109 16.4643 11.3992 16.3381 11.4863C16.306 11.5109 16.2827 11.5344 16.2506 11.5589C14.9144 12.5943 13.9967 14.2764 13.9967 16.1494C13.9967 18.5396 15.5233 19.7437 15.5233 21.9105C15.5233 24.0773 13.0402 25.0669 13.0402 27.1778C13.0402 29.2888 15.4845 30.9809 15.4845 32.9411C15.4845 34.7338 13.1431 37.0056 13.4121 39.2059C12.9372 39.0383 12.4789 38.8552 12.0206 38.6564C12.0527 36.4806 14.1328 34.6478 14.1328 32.8149C14.1328 30.7989 11.7748 29.1481 11.7748 27.179C11.7748 25.2098 14.3066 24.0471 14.3066 21.9429C14.3066 19.8386 13.049 18.6513 13.049 16.5002C13.049 14.5869 13.7133 13.3203 14.869 11.9331C14.6078 12.0694 14.4018 12.2201 14.1804 12.4111C12.9627 13.4957 12.1711 15.1922 12.1711 16.8676C12.1711 19.1461 13.2704 20.1748 13.2704 21.9596C13.2704 23.7445 10.6921 25.1551 10.6921 27.179C10.6921 29.2028 12.9306 30.9407 12.9306 32.663C12.9306 34.2088 10.9999 36.265 10.9368 38.1381C10.5416 37.9393 10.1618 37.7237 9.78212 37.5004C9.92493 35.787 11.7427 34.4244 11.7427 32.7021C11.7427 32.0722 11.4504 31.5461 11.2047 31.1317C11.9564 33.5074 9.17988 34.9102 8.92748 36.9575C8.4293 36.6146 7.93888 36.2561 7.46395 35.873C7.68536 35.491 8.01748 35.0286 8.3972 34.7728C8.21564 34.5573 8.04958 34.335 7.88353 34.1116C7.44071 34.383 7.03774 34.8924 6.78422 35.2911C6.38126 34.9326 5.98493 34.5584 5.60521 34.1597C5.95283 33.7218 6.41225 33.0439 7.06874 32.8685C6.91818 32.606 6.76873 32.3424 6.63367 32.071C5.86648 32.2788 5.34395 33.0037 4.94873 33.4415C4.60112 33.0349 4.26015 32.6206 3.94464 32.1905C4.53027 31.8086 5.01294 30.8435 6.06464 30.8045C6.1521 31.0189 6.23845 31.2423 6.3414 31.4579C6.45211 31.7047 6.61817 31.8086 6.94253 31.8086C7.91563 31.8086 9.42565 31.1708 10.5892 29.9992C9.83747 28.6131 9.60831 27.9027 9.60831 27.1767C9.60831 25.3439 12.1944 23.7981 12.1944 22.0211C12.1944 20.244 11.2999 19.2165 11.2999 17.2865C11.2999 15.5497 12.0837 14.0429 13.0955 12.7752C12.842 12.9361 12.6206 13.1114 12.4069 13.3337C11.3087 14.4562 10.5726 16.1148 10.5726 17.6294C10.5726 19.6856 11.332 20.5222 11.332 22.0445C11.332 23.4474 8.38945 25.3908 8.72267 27.3052C7.69422 28.2523 6.46761 28.6756 5.39266 28.6756C5.48787 29.0654 5.59857 29.4642 5.71703 29.8461C4.51477 29.9098 3.96124 30.9474 3.32026 31.2892C3.00364 30.8201 2.71138 30.3253 2.43462 29.8227C3.51067 29.711 3.83504 28.316 5.33731 28.4198C5.25871 28.0535 5.1945 27.6782 5.13914 27.3041C3.41436 27.1834 3.01914 28.6589 1.87998 28.7136C1.64308 28.1965 1.42167 27.6704 1.2235 27.1276C2.80548 27.2002 3.34351 25.6544 5.00409 25.67C4.99634 25.5181 4.99634 25.3584 4.99634 25.1998C4.99634 24.9127 5.00409 24.6346 5.01958 24.3554C3.07339 24.3074 2.48111 25.9973 0.796181 25.8297C0.645622 25.2958 0.511668 24.7463 0.393214 24.1957C2.52097 24.4671 3.2959 22.6577 5.21 22.6655C5.29745 22.1473 5.40816 21.6368 5.54986 21.1432C3.22395 21.0393 2.41801 23.0799 0.155198 22.6979C0.0920958 22.2277 0.0522419 21.7485 0.0289938 21.2627C2.65492 21.5665 3.64352 19.3818 6.04029 19.6532C6.26945 19.0724 6.53071 18.5128 6.82297 17.9801C3.81733 17.4462 2.79662 19.9805 0.00463867 19.5895C0.300222 8.71862 9.1356 0 19.9958 0C30.856 0 39.6913 8.71862 40.0002 19.5895C37.1994 19.9805 36.1787 17.4451 33.173 17.9801C33.4664 18.5139 33.7354 19.0724 33.9568 19.6532C36.3536 19.3818 37.3422 21.5665 39.9759 21.2627ZM11.3984 12.8155C9.92604 12.2101 8.13926 12.3452 6.62038 13.3337C6.38347 11.9063 5.61628 10.6319 4.51698 9.86569C4.36642 9.76294 4.20811 9.86569 4.22361 10.0422C4.45277 13.0623 2.70474 15.677 0.553736 17.9801C2.76784 18.6491 4.65868 15.7719 7.53813 16.776C8.56658 15.2302 9.87954 13.8832 11.3984 12.8155ZM19.9958 10.9904C18.137 10.9904 16.5872 12.0426 16.1753 13.4141C16.1432 13.5169 16.1908 13.5895 16.3093 13.5336C16.6414 13.3828 17.0222 13.3103 17.433 13.3103C18.1924 13.3103 18.8566 13.5895 19.2518 14.0753C19.4256 14.6572 19.4412 15.4938 19.2441 15.9808C18.9352 15.9093 18.8245 15.6625 18.5157 15.6625C18.2068 15.6625 17.9776 15.878 17.4651 15.878C16.9525 15.878 16.8872 15.6379 16.5462 15.6379C16.1432 15.6379 16.0713 16.0534 16.0713 16.5158C16.0713 18.6033 17.9699 21.4727 19.9947 21.4727C22.0195 21.4727 23.9181 18.6044 23.9181 16.5158C23.9181 16.0534 23.8229 15.6468 23.4121 15.5899C23.1996 15.7418 23.0092 15.878 22.5343 15.878C22.0128 15.878 21.87 15.6625 21.57 15.6625C21.2058 15.6625 21.2379 16.4432 20.8028 16.4912C20.5106 15.782 20.4951 14.8817 20.7397 14.0765C21.136 13.5906 21.8003 13.3114 22.5597 13.3114C22.9704 13.3114 23.359 13.384 23.6911 13.5347C23.8096 13.5906 23.8494 13.5191 23.8173 13.4152C23.4133 12.0437 21.8556 10.9915 19.9969 10.9915L19.9958 10.9904ZM22.9538 13.9793C22.511 13.9793 21.9896 14.1155 21.6575 14.4897C21.6254 14.5858 21.6254 14.7377 21.673 14.8326C22.4789 14.5534 23.1907 14.5456 23.5395 14.9354C23.7221 14.7689 23.7764 14.617 23.7764 14.4417C23.7764 14.1703 23.5074 13.9793 22.9538 13.9793ZM16.4599 14.9354C16.8473 14.5366 17.6699 14.5534 18.5245 14.8717C18.5566 14.4495 17.7972 13.9793 17.0377 13.9793C16.492 13.9793 16.2141 14.1703 16.2141 14.4417C16.2141 14.617 16.2772 14.7689 16.4599 14.9354ZM29.2574 7.87424C27.7939 7.97811 26.513 8.48854 25.4845 9.33292C25.9274 8.08086 26.4809 6.98964 27.185 5.92969C25.3174 6.1285 23.752 6.81317 22.6129 7.99375L21.7272 5.63371L23.7055 3.87234L21.0563 3.68916L19.9958 1.2018L18.9363 3.68916L16.2872 3.87234L18.2721 5.63371L17.3776 7.99375C16.2384 6.81317 14.6808 6.1285 12.8143 5.92969C13.5107 6.98852 14.0708 8.08086 14.507 9.33292C13.4786 8.48854 12.2055 7.97811 10.7342 7.87424C11.6198 9.0146 12.3948 10.2253 12.9726 11.5321C13.0357 11.684 13.1786 11.7321 13.328 11.6516C15.3373 10.6475 17.599 10.0813 19.9958 10.0813C22.3925 10.0813 24.6554 10.6475 26.6636 11.6516C26.8141 11.7309 26.9569 11.684 27.02 11.5321C27.5979 10.2253 28.3806 9.0146 29.2585 7.87424H29.2574ZM32.4601 16.776C35.3307 15.7719 37.2215 18.6491 39.4445 17.9801C37.2935 15.677 35.5377 13.0634 35.7757 10.0422C35.7834 9.86569 35.6251 9.76294 35.4757 9.86569C34.383 10.6319 33.6169 11.9063 33.38 13.3337C31.8534 12.3441 30.0733 12.2101 28.602 12.8155C30.1131 13.8832 31.4261 15.2302 32.4623 16.776H32.4601Z" fill="#046D48"/>
</g>
<defs>
<clipPath id="clip0_2255_49137">
<rect width="40" height="40" fill="white"/>
</clipPath>
</defs>
</svg>
