<svg width="43" height="16" viewBox="0 0 43 16" fill="none" xmlns="http://www.w3.org/2000/svg">
<g clip-path="url(#clip0_2829_37419)">
<path d="M18.7951 14.4746H15.4648L17.5478 1.56763H20.8779L18.7951 14.4746Z" fill="white"/>
<path d="M30.8678 1.88275C30.2109 1.6216 29.1691 1.33325 27.8808 1.33325C24.5921 1.33325 22.2762 3.09071 22.262 5.60335C22.2347 7.45717 23.9201 8.48682 25.1807 9.10495C26.4691 9.73657 26.9071 10.1488 26.9071 10.7118C26.894 11.5765 25.866 11.9751 24.9071 11.9751C23.5775 11.9751 22.8651 11.7696 21.7825 11.2885L21.344 11.0823L20.8779 13.9797C21.659 14.3363 23.098 14.6527 24.5921 14.6666C28.0864 14.6666 30.3614 12.9363 30.3883 10.2587C30.4016 8.78941 29.5116 7.66357 27.5929 6.7436C26.4281 6.15303 25.7148 5.75482 25.7148 5.15057C25.7285 4.60125 26.3181 4.03861 27.633 4.03861C28.7156 4.01105 29.5111 4.27184 30.1137 4.53281L30.4149 4.66987L30.8678 1.88275Z" fill="white"/>
<path d="M35.2941 9.90214C35.5683 9.16065 36.6237 6.29087 36.6237 6.29087C36.6098 6.31842 36.8974 5.53569 37.0618 5.05517L37.2946 6.16732C37.2946 6.16732 37.9252 9.25683 38.0622 9.90214C37.5417 9.90214 35.9519 9.90214 35.2941 9.90214ZM39.4049 1.56763H36.8289C36.0345 1.56763 35.431 1.80086 35.0883 2.63853L30.1416 14.4745H33.6359C33.6359 14.4745 34.2112 12.8814 34.3349 12.5383C34.7182 12.5383 38.1175 12.5383 38.6107 12.5383C38.7063 12.9915 39.008 14.4745 39.008 14.4745H42.0915L39.4049 1.56763Z" fill="white"/>
<path d="M12.6831 1.56763L9.42165 10.369L9.06525 8.58396C8.46228 6.52428 6.57124 4.28649 4.46094 3.1738L7.44829 14.461H10.97L16.2046 1.56763H12.6831Z" fill="white"/>
<path d="M6.39287 1.56763H1.0348L0.97998 1.82842C5.15961 2.8995 7.9277 5.4813 9.06499 8.58451L7.9002 2.65258C7.70844 1.82823 7.11913 1.59482 6.39287 1.56763Z" fill="white"/>
</g>
<defs>
<clipPath id="clip0_2829_37419">
<rect width="41.1111" height="13.3333" fill="white" transform="translate(0.980957 1.33325)"/>
</clipPath>
</defs>
</svg>
